<?xml version="1.0" encoding="utf-8" standalone="no"?>
<!DOCTYPE svg PUBLIC "-//W3C//DTD SVG 1.1//EN"
  "http://www.w3.org/Graphics/SVG/1.1/DTD/svg11.dtd">
<svg xmlns:xlink="http://www.w3.org/1999/xlink" width="841.691pt" height="281.253125pt" viewBox="0 0 841.691 281.253125" xmlns="http://www.w3.org/2000/svg" version="1.1">
 <metadata>
  <rdf:RDF xmlns:dc="http://purl.org/dc/elements/1.1/" xmlns:cc="http://creativecommons.org/ns#" xmlns:rdf="http://www.w3.org/1999/02/22-rdf-syntax-ns#">
   <cc:Work>
    <dc:type rdf:resource="http://purl.org/dc/dcmitype/StillImage"/>
    <dc:date>2023-06-27T17:45:58.519701</dc:date>
    <dc:format>image/svg+xml</dc:format>
    <dc:creator>
     <cc:Agent>
      <dc:title>Matplotlib v3.6.2, https://matplotlib.org/</dc:title>
     </cc:Agent>
    </dc:creator>
   </cc:Work>
  </rdf:RDF>
 </metadata>
 <defs>
  <style type="text/css">*{stroke-linejoin: round; stroke-linecap: butt}</style>
 </defs>
 <g id="figure_1">
  <g id="patch_1">
   <path d="M 0 281.253125 
L 841.691 281.253125 
L 841.691 0 
L 0 0 
z
" style="fill: #ffffff"/>
  </g>
  <g id="axes_1">
   <g id="patch_2">
    <path d="M 30.103125 257.375 
L 281.553125 257.375 
L 281.553125 36.08925 
L 30.103125 36.08925 
z
" style="fill: #ffffff"/>
   </g>
   <g id="matplotlib.axis_1">
    <g id="xtick_1">
     <g id="line2d_1">
      <defs>
       <path id="m57e887c7f3" d="M 0 0 
L 0 3.5 
" style="stroke: #000000; stroke-width: 0.8"/>
      </defs>
      <g>
       <use xlink:href="#m57e887c7f3" x="47.500935" y="257.375" style="stroke: #000000; stroke-width: 0.8"/>
      </g>
     </g>
     <g id="text_1">
      <!-- −1.25 -->
      <g transform="translate(32.178279 271.973438) scale(0.1 -0.1)">
       <defs>
        <path id="DejaVuSans-2212" d="M 678 2272 
L 4684 2272 
L 4684 1741 
L 678 1741 
L 678 2272 
z
" transform="scale(0.015625)"/>
        <path id="DejaVuSans-31" d="M 794 531 
L 1825 531 
L 1825 4091 
L 703 3866 
L 703 4441 
L 1819 4666 
L 2450 4666 
L 2450 531 
L 3481 531 
L 3481 0 
L 794 0 
L 794 531 
z
" transform="scale(0.015625)"/>
        <path id="DejaVuSans-2e" d="M 684 794 
L 1344 794 
L 1344 0 
L 684 0 
L 684 794 
z
" transform="scale(0.015625)"/>
        <path id="DejaVuSans-32" d="M 1228 531 
L 3431 531 
L 3431 0 
L 469 0 
L 469 531 
Q 828 903 1448 1529 
Q 2069 2156 2228 2338 
Q 2531 2678 2651 2914 
Q 2772 3150 2772 3378 
Q 2772 3750 2511 3984 
Q 2250 4219 1831 4219 
Q 1534 4219 1204 4116 
Q 875 4013 500 3803 
L 500 4441 
Q 881 4594 1212 4672 
Q 1544 4750 1819 4750 
Q 2544 4750 2975 4387 
Q 3406 4025 3406 3419 
Q 3406 3131 3298 2873 
Q 3191 2616 2906 2266 
Q 2828 2175 2409 1742 
Q 1991 1309 1228 531 
z
" transform="scale(0.015625)"/>
        <path id="DejaVuSans-35" d="M 691 4666 
L 3169 4666 
L 3169 4134 
L 1269 4134 
L 1269 2991 
Q 1406 3038 1543 3061 
Q 1681 3084 1819 3084 
Q 2600 3084 3056 2656 
Q 3513 2228 3513 1497 
Q 3513 744 3044 326 
Q 2575 -91 1722 -91 
Q 1428 -91 1123 -41 
Q 819 9 494 109 
L 494 744 
Q 775 591 1075 516 
Q 1375 441 1709 441 
Q 2250 441 2565 725 
Q 2881 1009 2881 1497 
Q 2881 1984 2565 2268 
Q 2250 2553 1709 2553 
Q 1456 2553 1204 2497 
Q 953 2441 691 2322 
L 691 4666 
z
" transform="scale(0.015625)"/>
       </defs>
       <use xlink:href="#DejaVuSans-2212"/>
       <use xlink:href="#DejaVuSans-31" x="83.789062"/>
       <use xlink:href="#DejaVuSans-2e" x="147.412109"/>
       <use xlink:href="#DejaVuSans-32" x="179.199219"/>
       <use xlink:href="#DejaVuSans-35" x="242.822266"/>
      </g>
     </g>
    </g>
    <g id="xtick_2">
     <g id="line2d_2">
      <g>
       <use xlink:href="#m57e887c7f3" x="81.515331" y="257.375" style="stroke: #000000; stroke-width: 0.8"/>
      </g>
     </g>
     <g id="text_2">
      <!-- −1.20 -->
      <g transform="translate(66.192675 271.973438) scale(0.1 -0.1)">
       <defs>
        <path id="DejaVuSans-30" d="M 2034 4250 
Q 1547 4250 1301 3770 
Q 1056 3291 1056 2328 
Q 1056 1369 1301 889 
Q 1547 409 2034 409 
Q 2525 409 2770 889 
Q 3016 1369 3016 2328 
Q 3016 3291 2770 3770 
Q 2525 4250 2034 4250 
z
M 2034 4750 
Q 2819 4750 3233 4129 
Q 3647 3509 3647 2328 
Q 3647 1150 3233 529 
Q 2819 -91 2034 -91 
Q 1250 -91 836 529 
Q 422 1150 422 2328 
Q 422 3509 836 4129 
Q 1250 4750 2034 4750 
z
" transform="scale(0.015625)"/>
       </defs>
       <use xlink:href="#DejaVuSans-2212"/>
       <use xlink:href="#DejaVuSans-31" x="83.789062"/>
       <use xlink:href="#DejaVuSans-2e" x="147.412109"/>
       <use xlink:href="#DejaVuSans-32" x="179.199219"/>
       <use xlink:href="#DejaVuSans-30" x="242.822266"/>
      </g>
     </g>
    </g>
    <g id="xtick_3">
     <g id="line2d_3">
      <g>
       <use xlink:href="#m57e887c7f3" x="115.529727" y="257.375" style="stroke: #000000; stroke-width: 0.8"/>
      </g>
     </g>
     <g id="text_3">
      <!-- −1.15 -->
      <g transform="translate(100.207071 271.973438) scale(0.1 -0.1)">
       <use xlink:href="#DejaVuSans-2212"/>
       <use xlink:href="#DejaVuSans-31" x="83.789062"/>
       <use xlink:href="#DejaVuSans-2e" x="147.412109"/>
       <use xlink:href="#DejaVuSans-31" x="179.199219"/>
       <use xlink:href="#DejaVuSans-35" x="242.822266"/>
      </g>
     </g>
    </g>
    <g id="xtick_4">
     <g id="line2d_4">
      <g>
       <use xlink:href="#m57e887c7f3" x="149.544123" y="257.375" style="stroke: #000000; stroke-width: 0.8"/>
      </g>
     </g>
     <g id="text_4">
      <!-- −1.10 -->
      <g transform="translate(134.221467 271.973438) scale(0.1 -0.1)">
       <use xlink:href="#DejaVuSans-2212"/>
       <use xlink:href="#DejaVuSans-31" x="83.789062"/>
       <use xlink:href="#DejaVuSans-2e" x="147.412109"/>
       <use xlink:href="#DejaVuSans-31" x="179.199219"/>
       <use xlink:href="#DejaVuSans-30" x="242.822266"/>
      </g>
     </g>
    </g>
    <g id="xtick_5">
     <g id="line2d_5">
      <g>
       <use xlink:href="#m57e887c7f3" x="183.558519" y="257.375" style="stroke: #000000; stroke-width: 0.8"/>
      </g>
     </g>
     <g id="text_5">
      <!-- −1.05 -->
      <g transform="translate(168.235863 271.973438) scale(0.1 -0.1)">
       <use xlink:href="#DejaVuSans-2212"/>
       <use xlink:href="#DejaVuSans-31" x="83.789062"/>
       <use xlink:href="#DejaVuSans-2e" x="147.412109"/>
       <use xlink:href="#DejaVuSans-30" x="179.199219"/>
       <use xlink:href="#DejaVuSans-35" x="242.822266"/>
      </g>
     </g>
    </g>
    <g id="xtick_6">
     <g id="line2d_6">
      <g>
       <use xlink:href="#m57e887c7f3" x="217.572915" y="257.375" style="stroke: #000000; stroke-width: 0.8"/>
      </g>
     </g>
     <g id="text_6">
      <!-- −1.00 -->
      <g transform="translate(202.250259 271.973438) scale(0.1 -0.1)">
       <use xlink:href="#DejaVuSans-2212"/>
       <use xlink:href="#DejaVuSans-31" x="83.789062"/>
       <use xlink:href="#DejaVuSans-2e" x="147.412109"/>
       <use xlink:href="#DejaVuSans-30" x="179.199219"/>
       <use xlink:href="#DejaVuSans-30" x="242.822266"/>
      </g>
     </g>
    </g>
    <g id="xtick_7">
     <g id="line2d_7">
      <g>
       <use xlink:href="#m57e887c7f3" x="251.587311" y="257.375" style="stroke: #000000; stroke-width: 0.8"/>
      </g>
     </g>
     <g id="text_7">
      <!-- −0.95 -->
      <g transform="translate(236.264655 271.973438) scale(0.1 -0.1)">
       <defs>
        <path id="DejaVuSans-39" d="M 703 97 
L 703 672 
Q 941 559 1184 500 
Q 1428 441 1663 441 
Q 2288 441 2617 861 
Q 2947 1281 2994 2138 
Q 2813 1869 2534 1725 
Q 2256 1581 1919 1581 
Q 1219 1581 811 2004 
Q 403 2428 403 3163 
Q 403 3881 828 4315 
Q 1253 4750 1959 4750 
Q 2769 4750 3195 4129 
Q 3622 3509 3622 2328 
Q 3622 1225 3098 567 
Q 2575 -91 1691 -91 
Q 1453 -91 1209 -44 
Q 966 3 703 97 
z
M 1959 2075 
Q 2384 2075 2632 2365 
Q 2881 2656 2881 3163 
Q 2881 3666 2632 3958 
Q 2384 4250 1959 4250 
Q 1534 4250 1286 3958 
Q 1038 3666 1038 3163 
Q 1038 2656 1286 2365 
Q 1534 2075 1959 2075 
z
" transform="scale(0.015625)"/>
       </defs>
       <use xlink:href="#DejaVuSans-2212"/>
       <use xlink:href="#DejaVuSans-30" x="83.789062"/>
       <use xlink:href="#DejaVuSans-2e" x="147.412109"/>
       <use xlink:href="#DejaVuSans-39" x="179.199219"/>
       <use xlink:href="#DejaVuSans-35" x="242.822266"/>
      </g>
     </g>
    </g>
   </g>
   <g id="matplotlib.axis_2">
    <g id="ytick_1">
     <g id="line2d_8">
      <defs>
       <path id="m9fa985e6f8" d="M 0 0 
L -3.5 0 
" style="stroke: #000000; stroke-width: 0.8"/>
      </defs>
      <g>
       <use xlink:href="#m9fa985e6f8" x="30.103125" y="247.316557" style="stroke: #000000; stroke-width: 0.8"/>
      </g>
     </g>
     <g id="text_8">
      <!-- 0.0 -->
      <g transform="translate(7.2 251.115776) scale(0.1 -0.1)">
       <use xlink:href="#DejaVuSans-30"/>
       <use xlink:href="#DejaVuSans-2e" x="63.623047"/>
       <use xlink:href="#DejaVuSans-30" x="95.410156"/>
      </g>
     </g>
    </g>
    <g id="ytick_2">
     <g id="line2d_9">
      <g>
       <use xlink:href="#m9fa985e6f8" x="30.103125" y="207.082286" style="stroke: #000000; stroke-width: 0.8"/>
      </g>
     </g>
     <g id="text_9">
      <!-- 0.2 -->
      <g transform="translate(7.2 210.881505) scale(0.1 -0.1)">
       <use xlink:href="#DejaVuSans-30"/>
       <use xlink:href="#DejaVuSans-2e" x="63.623047"/>
       <use xlink:href="#DejaVuSans-32" x="95.410156"/>
      </g>
     </g>
    </g>
    <g id="ytick_3">
     <g id="line2d_10">
      <g>
       <use xlink:href="#m9fa985e6f8" x="30.103125" y="166.848015" style="stroke: #000000; stroke-width: 0.8"/>
      </g>
     </g>
     <g id="text_10">
      <!-- 0.4 -->
      <g transform="translate(7.2 170.647234) scale(0.1 -0.1)">
       <defs>
        <path id="DejaVuSans-34" d="M 2419 4116 
L 825 1625 
L 2419 1625 
L 2419 4116 
z
M 2253 4666 
L 3047 4666 
L 3047 1625 
L 3713 1625 
L 3713 1100 
L 3047 1100 
L 3047 0 
L 2419 0 
L 2419 1100 
L 313 1100 
L 313 1709 
L 2253 4666 
z
" transform="scale(0.015625)"/>
       </defs>
       <use xlink:href="#DejaVuSans-30"/>
       <use xlink:href="#DejaVuSans-2e" x="63.623047"/>
       <use xlink:href="#DejaVuSans-34" x="95.410156"/>
      </g>
     </g>
    </g>
    <g id="ytick_4">
     <g id="line2d_11">
      <g>
       <use xlink:href="#m9fa985e6f8" x="30.103125" y="126.613744" style="stroke: #000000; stroke-width: 0.8"/>
      </g>
     </g>
     <g id="text_11">
      <!-- 0.6 -->
      <g transform="translate(7.2 130.412963) scale(0.1 -0.1)">
       <defs>
        <path id="DejaVuSans-36" d="M 2113 2584 
Q 1688 2584 1439 2293 
Q 1191 2003 1191 1497 
Q 1191 994 1439 701 
Q 1688 409 2113 409 
Q 2538 409 2786 701 
Q 3034 994 3034 1497 
Q 3034 2003 2786 2293 
Q 2538 2584 2113 2584 
z
M 3366 4563 
L 3366 3988 
Q 3128 4100 2886 4159 
Q 2644 4219 2406 4219 
Q 1781 4219 1451 3797 
Q 1122 3375 1075 2522 
Q 1259 2794 1537 2939 
Q 1816 3084 2150 3084 
Q 2853 3084 3261 2657 
Q 3669 2231 3669 1497 
Q 3669 778 3244 343 
Q 2819 -91 2113 -91 
Q 1303 -91 875 529 
Q 447 1150 447 2328 
Q 447 3434 972 4092 
Q 1497 4750 2381 4750 
Q 2619 4750 2861 4703 
Q 3103 4656 3366 4563 
z
" transform="scale(0.015625)"/>
       </defs>
       <use xlink:href="#DejaVuSans-30"/>
       <use xlink:href="#DejaVuSans-2e" x="63.623047"/>
       <use xlink:href="#DejaVuSans-36" x="95.410156"/>
      </g>
     </g>
    </g>
    <g id="ytick_5">
     <g id="line2d_12">
      <g>
       <use xlink:href="#m9fa985e6f8" x="30.103125" y="86.379473" style="stroke: #000000; stroke-width: 0.8"/>
      </g>
     </g>
     <g id="text_12">
      <!-- 0.8 -->
      <g transform="translate(7.2 90.178692) scale(0.1 -0.1)">
       <defs>
        <path id="DejaVuSans-38" d="M 2034 2216 
Q 1584 2216 1326 1975 
Q 1069 1734 1069 1313 
Q 1069 891 1326 650 
Q 1584 409 2034 409 
Q 2484 409 2743 651 
Q 3003 894 3003 1313 
Q 3003 1734 2745 1975 
Q 2488 2216 2034 2216 
z
M 1403 2484 
Q 997 2584 770 2862 
Q 544 3141 544 3541 
Q 544 4100 942 4425 
Q 1341 4750 2034 4750 
Q 2731 4750 3128 4425 
Q 3525 4100 3525 3541 
Q 3525 3141 3298 2862 
Q 3072 2584 2669 2484 
Q 3125 2378 3379 2068 
Q 3634 1759 3634 1313 
Q 3634 634 3220 271 
Q 2806 -91 2034 -91 
Q 1263 -91 848 271 
Q 434 634 434 1313 
Q 434 1759 690 2068 
Q 947 2378 1403 2484 
z
M 1172 3481 
Q 1172 3119 1398 2916 
Q 1625 2713 2034 2713 
Q 2441 2713 2670 2916 
Q 2900 3119 2900 3481 
Q 2900 3844 2670 4047 
Q 2441 4250 2034 4250 
Q 1625 4250 1398 4047 
Q 1172 3844 1172 3481 
z
" transform="scale(0.015625)"/>
       </defs>
       <use xlink:href="#DejaVuSans-30"/>
       <use xlink:href="#DejaVuSans-2e" x="63.623047"/>
       <use xlink:href="#DejaVuSans-38" x="95.410156"/>
      </g>
     </g>
    </g>
    <g id="ytick_6">
     <g id="line2d_13">
      <g>
       <use xlink:href="#m9fa985e6f8" x="30.103125" y="46.145202" style="stroke: #000000; stroke-width: 0.8"/>
      </g>
     </g>
     <g id="text_13">
      <!-- 1.0 -->
      <g transform="translate(7.2 49.944421) scale(0.1 -0.1)">
       <use xlink:href="#DejaVuSans-31"/>
       <use xlink:href="#DejaVuSans-2e" x="63.623047"/>
       <use xlink:href="#DejaVuSans-30" x="95.410156"/>
      </g>
     </g>
    </g>
   </g>
   <g id="line2d_14">
    <path d="M 41.53267 247.316557 
L 136.492858 247.221403 
L 137.636957 247.026627 
L 138.552235 246.652806 
L 139.238695 246.125812 
L 139.925154 245.246688 
L 140.611613 243.830157 
L 141.298072 241.626427 
L 141.984531 238.317902 
L 142.670991 233.527215 
L 143.35745 226.841744 
L 144.043909 217.858314 
L 144.730368 206.248493 
L 145.645647 186.418149 
L 146.789746 155.216629 
L 149.764402 68.093315 
L 150.450861 55.178927 
L 150.908501 49.55014 
L 151.36614 46.588338 
L 151.59496 46.15046 
L 151.82378 46.416486 
L 152.052599 47.383626 
L 152.510239 51.373604 
L 152.967878 57.955471 
L 153.654338 72.080111 
L 154.569616 96.849564 
L 157.773093 190.542901 
L 158.688372 209.433279 
L 159.603651 223.415818 
L 160.29011 231.008093 
L 160.976569 236.533912 
L 161.663028 240.408626 
L 162.349487 243.028296 
L 163.035946 244.73712 
L 163.722406 245.813141 
L 164.408865 246.467486 
L 165.095324 246.851914 
L 166.010603 247.11853 
L 167.383521 247.266955 
L 170.586998 247.315355 
L 255.021477 247.316557 
L 270.12358 247.316557 
L 270.12358 247.316557 
" clip-path="url(#p7d2284b64f)" style="fill: none; stroke: #ff0000; stroke-width: 1.5; stroke-linecap: square"/>
   </g>
   <g id="line2d_15">
    <path d="M 41.53267 247.21166 
L 43.592048 246.973519 
L 44.964966 246.601995 
L 46.109065 246.043824 
L 47.024344 245.34162 
L 47.939623 244.312489 
L 48.854902 242.837294 
L 49.541361 241.351064 
L 50.45664 238.726641 
L 51.371919 235.191832 
L 52.287198 230.540291 
L 53.202477 224.562486 
L 54.117756 217.063912 
L 55.033034 207.888261 
L 56.177133 193.929461 
L 57.321232 177.246257 
L 58.92297 150.010623 
L 63.041725 76.290061 
L 63.957004 63.799214 
L 64.872283 54.283696 
L 65.558742 49.431047 
L 66.016381 47.378082 
L 66.474021 46.308319 
L 66.702841 46.147693 
L 66.93166 46.237683 
L 67.16048 46.577952 
L 67.61812 48.003319 
L 68.075759 50.402603 
L 68.762218 55.746409 
L 69.448677 63.023845 
L 70.363956 75.325925 
L 71.508055 93.917375 
L 73.567432 131.891849 
L 75.62681 168.804676 
L 76.999728 189.904289 
L 78.143827 204.575478 
L 79.287926 216.473625 
L 80.203205 224.085886 
L 81.118484 230.164813 
L 82.033762 234.903029 
L 82.949041 238.509667 
L 83.86432 241.191779 
L 84.779599 243.141152 
L 85.694878 244.526281 
L 86.610157 245.488725 
L 87.525436 246.142834 
L 88.669535 246.660525 
L 90.042453 247.003304 
L 91.873011 247.207526 
L 95.076487 247.302363 
L 109.03449 247.316557 
L 270.12358 247.316557 
L 270.12358 247.316557 
" clip-path="url(#p7d2284b64f)" style="fill: none; stroke: #008000; stroke-width: 1.5; stroke-linecap: square"/>
   </g>
   <g id="line2d_16">
    <path d="M 41.53267 247.316557 
L 49.770181 247.232995 
L 50.22782 246.965655 
L 50.45664 246.635796 
L 50.68546 246.043202 
L 50.914279 245.020138 
L 51.143099 243.323556 
L 51.371919 240.622424 
L 51.829558 230.453975 
L 52.287198 210.610282 
L 52.744837 178.269834 
L 54.117756 55.94803 
L 54.346575 47.711458 
L 54.575395 46.583278 
L 54.804215 52.684776 
L 55.261854 83.3171 
L 56.634773 206.46134 
L 57.092412 228.120047 
L 57.550051 239.522141 
L 58.007691 244.58172 
L 58.46533 246.487345 
L 58.92297 247.099293 
L 59.380609 247.267365 
L 60.524708 247.315923 
L 125.051871 247.316557 
L 270.12358 247.316557 
L 270.12358 247.316557 
" clip-path="url(#p7d2284b64f)" style="fill: none; stroke: #ff0000; stroke-width: 1.5; stroke-linecap: square"/>
   </g>
   <g id="line2d_17">
    <path d="M 41.53267 247.316557 
L 241.063474 247.216321 
L 242.436392 246.969528 
L 243.351671 246.569708 
L 244.03813 246.031661 
L 244.72459 245.166301 
L 245.411049 243.816305 
L 246.097508 241.774184 
L 246.783967 238.780069 
L 247.470426 234.527166 
L 248.156886 228.6782 
L 248.843345 220.89536 
L 249.529804 210.884433 
L 250.445083 193.756572 
L 251.360362 172.354727 
L 252.73328 134.129479 
L 254.792658 76.655176 
L 255.707937 58.215961 
L 256.394396 49.575841 
L 256.852035 46.704168 
L 257.080855 46.182123 
L 257.309675 46.277545 
L 257.538494 46.989555 
L 257.996134 50.231591 
L 258.453773 55.790246 
L 259.140233 68.016622 
L 260.055511 90.028523 
L 261.886069 142.878665 
L 263.258988 179.79852 
L 264.174267 199.845126 
L 265.089546 215.541334 
L 266.004824 227.068252 
L 266.691284 233.333611 
L 267.377743 237.923741 
L 268.064202 241.179218 
L 268.750661 243.415777 
L 269.43712 244.904931 
L 270.12358 245.866264 
L 270.12358 245.866264 
" clip-path="url(#p7d2284b64f)" style="fill: none; stroke: #008000; stroke-width: 1.5; stroke-linecap: square"/>
   </g>
   <g id="patch_3">
    <path d="M 30.103125 257.375 
L 30.103125 36.08925 
" style="fill: none; stroke: #000000; stroke-width: 0.8; stroke-linejoin: miter; stroke-linecap: square"/>
   </g>
   <g id="patch_4">
    <path d="M 281.553125 257.375 
L 281.553125 36.08925 
" style="fill: none; stroke: #000000; stroke-width: 0.8; stroke-linejoin: miter; stroke-linecap: square"/>
   </g>
   <g id="patch_5">
    <path d="M 30.103125 257.375 
L 281.553125 257.375 
" style="fill: none; stroke: #000000; stroke-width: 0.8; stroke-linejoin: miter; stroke-linecap: square"/>
   </g>
   <g id="patch_6">
    <path d="M 30.103125 36.08925 
L 281.553125 36.08925 
" style="fill: none; stroke: #000000; stroke-width: 0.8; stroke-linejoin: miter; stroke-linecap: square"/>
   </g>
   <g id="text_14">
    <!-- H_0 Distributional Coordinates  -->
    <g transform="translate(62.412812 16.318125) scale(0.12 -0.12)">
     <defs>
      <path id="DejaVuSans-48" d="M 628 4666 
L 1259 4666 
L 1259 2753 
L 3553 2753 
L 3553 4666 
L 4184 4666 
L 4184 0 
L 3553 0 
L 3553 2222 
L 1259 2222 
L 1259 0 
L 628 0 
L 628 4666 
z
" transform="scale(0.015625)"/>
      <path id="DejaVuSans-5f" d="M 3263 -1063 
L 3263 -1509 
L -63 -1509 
L -63 -1063 
L 3263 -1063 
z
" transform="scale(0.015625)"/>
      <path id="DejaVuSans-20" transform="scale(0.015625)"/>
      <path id="DejaVuSans-44" d="M 1259 4147 
L 1259 519 
L 2022 519 
Q 2988 519 3436 956 
Q 3884 1394 3884 2338 
Q 3884 3275 3436 3711 
Q 2988 4147 2022 4147 
L 1259 4147 
z
M 628 4666 
L 1925 4666 
Q 3281 4666 3915 4102 
Q 4550 3538 4550 2338 
Q 4550 1131 3912 565 
Q 3275 0 1925 0 
L 628 0 
L 628 4666 
z
" transform="scale(0.015625)"/>
      <path id="DejaVuSans-69" d="M 603 3500 
L 1178 3500 
L 1178 0 
L 603 0 
L 603 3500 
z
M 603 4863 
L 1178 4863 
L 1178 4134 
L 603 4134 
L 603 4863 
z
" transform="scale(0.015625)"/>
      <path id="DejaVuSans-73" d="M 2834 3397 
L 2834 2853 
Q 2591 2978 2328 3040 
Q 2066 3103 1784 3103 
Q 1356 3103 1142 2972 
Q 928 2841 928 2578 
Q 928 2378 1081 2264 
Q 1234 2150 1697 2047 
L 1894 2003 
Q 2506 1872 2764 1633 
Q 3022 1394 3022 966 
Q 3022 478 2636 193 
Q 2250 -91 1575 -91 
Q 1294 -91 989 -36 
Q 684 19 347 128 
L 347 722 
Q 666 556 975 473 
Q 1284 391 1588 391 
Q 1994 391 2212 530 
Q 2431 669 2431 922 
Q 2431 1156 2273 1281 
Q 2116 1406 1581 1522 
L 1381 1569 
Q 847 1681 609 1914 
Q 372 2147 372 2553 
Q 372 3047 722 3315 
Q 1072 3584 1716 3584 
Q 2034 3584 2315 3537 
Q 2597 3491 2834 3397 
z
" transform="scale(0.015625)"/>
      <path id="DejaVuSans-74" d="M 1172 4494 
L 1172 3500 
L 2356 3500 
L 2356 3053 
L 1172 3053 
L 1172 1153 
Q 1172 725 1289 603 
Q 1406 481 1766 481 
L 2356 481 
L 2356 0 
L 1766 0 
Q 1100 0 847 248 
Q 594 497 594 1153 
L 594 3053 
L 172 3053 
L 172 3500 
L 594 3500 
L 594 4494 
L 1172 4494 
z
" transform="scale(0.015625)"/>
      <path id="DejaVuSans-72" d="M 2631 2963 
Q 2534 3019 2420 3045 
Q 2306 3072 2169 3072 
Q 1681 3072 1420 2755 
Q 1159 2438 1159 1844 
L 1159 0 
L 581 0 
L 581 3500 
L 1159 3500 
L 1159 2956 
Q 1341 3275 1631 3429 
Q 1922 3584 2338 3584 
Q 2397 3584 2469 3576 
Q 2541 3569 2628 3553 
L 2631 2963 
z
" transform="scale(0.015625)"/>
      <path id="DejaVuSans-62" d="M 3116 1747 
Q 3116 2381 2855 2742 
Q 2594 3103 2138 3103 
Q 1681 3103 1420 2742 
Q 1159 2381 1159 1747 
Q 1159 1113 1420 752 
Q 1681 391 2138 391 
Q 2594 391 2855 752 
Q 3116 1113 3116 1747 
z
M 1159 2969 
Q 1341 3281 1617 3432 
Q 1894 3584 2278 3584 
Q 2916 3584 3314 3078 
Q 3713 2572 3713 1747 
Q 3713 922 3314 415 
Q 2916 -91 2278 -91 
Q 1894 -91 1617 61 
Q 1341 213 1159 525 
L 1159 0 
L 581 0 
L 581 4863 
L 1159 4863 
L 1159 2969 
z
" transform="scale(0.015625)"/>
      <path id="DejaVuSans-75" d="M 544 1381 
L 544 3500 
L 1119 3500 
L 1119 1403 
Q 1119 906 1312 657 
Q 1506 409 1894 409 
Q 2359 409 2629 706 
Q 2900 1003 2900 1516 
L 2900 3500 
L 3475 3500 
L 3475 0 
L 2900 0 
L 2900 538 
Q 2691 219 2414 64 
Q 2138 -91 1772 -91 
Q 1169 -91 856 284 
Q 544 659 544 1381 
z
M 1991 3584 
L 1991 3584 
z
" transform="scale(0.015625)"/>
      <path id="DejaVuSans-6f" d="M 1959 3097 
Q 1497 3097 1228 2736 
Q 959 2375 959 1747 
Q 959 1119 1226 758 
Q 1494 397 1959 397 
Q 2419 397 2687 759 
Q 2956 1122 2956 1747 
Q 2956 2369 2687 2733 
Q 2419 3097 1959 3097 
z
M 1959 3584 
Q 2709 3584 3137 3096 
Q 3566 2609 3566 1747 
Q 3566 888 3137 398 
Q 2709 -91 1959 -91 
Q 1206 -91 779 398 
Q 353 888 353 1747 
Q 353 2609 779 3096 
Q 1206 3584 1959 3584 
z
" transform="scale(0.015625)"/>
      <path id="DejaVuSans-6e" d="M 3513 2113 
L 3513 0 
L 2938 0 
L 2938 2094 
Q 2938 2591 2744 2837 
Q 2550 3084 2163 3084 
Q 1697 3084 1428 2787 
Q 1159 2491 1159 1978 
L 1159 0 
L 581 0 
L 581 3500 
L 1159 3500 
L 1159 2956 
Q 1366 3272 1645 3428 
Q 1925 3584 2291 3584 
Q 2894 3584 3203 3211 
Q 3513 2838 3513 2113 
z
" transform="scale(0.015625)"/>
      <path id="DejaVuSans-61" d="M 2194 1759 
Q 1497 1759 1228 1600 
Q 959 1441 959 1056 
Q 959 750 1161 570 
Q 1363 391 1709 391 
Q 2188 391 2477 730 
Q 2766 1069 2766 1631 
L 2766 1759 
L 2194 1759 
z
M 3341 1997 
L 3341 0 
L 2766 0 
L 2766 531 
Q 2569 213 2275 61 
Q 1981 -91 1556 -91 
Q 1019 -91 701 211 
Q 384 513 384 1019 
Q 384 1609 779 1909 
Q 1175 2209 1959 2209 
L 2766 2209 
L 2766 2266 
Q 2766 2663 2505 2880 
Q 2244 3097 1772 3097 
Q 1472 3097 1187 3025 
Q 903 2953 641 2809 
L 641 3341 
Q 956 3463 1253 3523 
Q 1550 3584 1831 3584 
Q 2591 3584 2966 3190 
Q 3341 2797 3341 1997 
z
" transform="scale(0.015625)"/>
      <path id="DejaVuSans-6c" d="M 603 4863 
L 1178 4863 
L 1178 0 
L 603 0 
L 603 4863 
z
" transform="scale(0.015625)"/>
      <path id="DejaVuSans-43" d="M 4122 4306 
L 4122 3641 
Q 3803 3938 3442 4084 
Q 3081 4231 2675 4231 
Q 1875 4231 1450 3742 
Q 1025 3253 1025 2328 
Q 1025 1406 1450 917 
Q 1875 428 2675 428 
Q 3081 428 3442 575 
Q 3803 722 4122 1019 
L 4122 359 
Q 3791 134 3420 21 
Q 3050 -91 2638 -91 
Q 1578 -91 968 557 
Q 359 1206 359 2328 
Q 359 3453 968 4101 
Q 1578 4750 2638 4750 
Q 3056 4750 3426 4639 
Q 3797 4528 4122 4306 
z
" transform="scale(0.015625)"/>
      <path id="DejaVuSans-64" d="M 2906 2969 
L 2906 4863 
L 3481 4863 
L 3481 0 
L 2906 0 
L 2906 525 
Q 2725 213 2448 61 
Q 2172 -91 1784 -91 
Q 1150 -91 751 415 
Q 353 922 353 1747 
Q 353 2572 751 3078 
Q 1150 3584 1784 3584 
Q 2172 3584 2448 3432 
Q 2725 3281 2906 2969 
z
M 947 1747 
Q 947 1113 1208 752 
Q 1469 391 1925 391 
Q 2381 391 2643 752 
Q 2906 1113 2906 1747 
Q 2906 2381 2643 2742 
Q 2381 3103 1925 3103 
Q 1469 3103 1208 2742 
Q 947 2381 947 1747 
z
" transform="scale(0.015625)"/>
      <path id="DejaVuSans-65" d="M 3597 1894 
L 3597 1613 
L 953 1613 
Q 991 1019 1311 708 
Q 1631 397 2203 397 
Q 2534 397 2845 478 
Q 3156 559 3463 722 
L 3463 178 
Q 3153 47 2828 -22 
Q 2503 -91 2169 -91 
Q 1331 -91 842 396 
Q 353 884 353 1716 
Q 353 2575 817 3079 
Q 1281 3584 2069 3584 
Q 2775 3584 3186 3129 
Q 3597 2675 3597 1894 
z
M 3022 2063 
Q 3016 2534 2758 2815 
Q 2500 3097 2075 3097 
Q 1594 3097 1305 2825 
Q 1016 2553 972 2059 
L 3022 2063 
z
" transform="scale(0.015625)"/>
     </defs>
     <use xlink:href="#DejaVuSans-48"/>
     <use xlink:href="#DejaVuSans-5f" x="75.195312"/>
     <use xlink:href="#DejaVuSans-30" x="125.195312"/>
     <use xlink:href="#DejaVuSans-20" x="188.818359"/>
     <use xlink:href="#DejaVuSans-44" x="220.605469"/>
     <use xlink:href="#DejaVuSans-69" x="297.607422"/>
     <use xlink:href="#DejaVuSans-73" x="325.390625"/>
     <use xlink:href="#DejaVuSans-74" x="377.490234"/>
     <use xlink:href="#DejaVuSans-72" x="416.699219"/>
     <use xlink:href="#DejaVuSans-69" x="457.8125"/>
     <use xlink:href="#DejaVuSans-62" x="485.595703"/>
     <use xlink:href="#DejaVuSans-75" x="549.072266"/>
     <use xlink:href="#DejaVuSans-74" x="612.451172"/>
     <use xlink:href="#DejaVuSans-69" x="651.660156"/>
     <use xlink:href="#DejaVuSans-6f" x="679.443359"/>
     <use xlink:href="#DejaVuSans-6e" x="740.625"/>
     <use xlink:href="#DejaVuSans-61" x="804.003906"/>
     <use xlink:href="#DejaVuSans-6c" x="865.283203"/>
     <use xlink:href="#DejaVuSans-20" x="893.066406"/>
     <use xlink:href="#DejaVuSans-43" x="924.853516"/>
     <use xlink:href="#DejaVuSans-6f" x="994.677734"/>
     <use xlink:href="#DejaVuSans-6f" x="1055.859375"/>
     <use xlink:href="#DejaVuSans-72" x="1117.041016"/>
     <use xlink:href="#DejaVuSans-64" x="1156.404297"/>
     <use xlink:href="#DejaVuSans-69" x="1219.880859"/>
     <use xlink:href="#DejaVuSans-6e" x="1247.664062"/>
     <use xlink:href="#DejaVuSans-61" x="1311.042969"/>
     <use xlink:href="#DejaVuSans-74" x="1372.322266"/>
     <use xlink:href="#DejaVuSans-65" x="1411.53125"/>
     <use xlink:href="#DejaVuSans-73" x="1473.054688"/>
     <use xlink:href="#DejaVuSans-20" x="1525.154297"/>
    </g>
    <!--  (4 gaussians) -->
    <g transform="translate(113.703437 30.08925) scale(0.12 -0.12)">
     <defs>
      <path id="DejaVuSans-28" d="M 1984 4856 
Q 1566 4138 1362 3434 
Q 1159 2731 1159 2009 
Q 1159 1288 1364 580 
Q 1569 -128 1984 -844 
L 1484 -844 
Q 1016 -109 783 600 
Q 550 1309 550 2009 
Q 550 2706 781 3412 
Q 1013 4119 1484 4856 
L 1984 4856 
z
" transform="scale(0.015625)"/>
      <path id="DejaVuSans-67" d="M 2906 1791 
Q 2906 2416 2648 2759 
Q 2391 3103 1925 3103 
Q 1463 3103 1205 2759 
Q 947 2416 947 1791 
Q 947 1169 1205 825 
Q 1463 481 1925 481 
Q 2391 481 2648 825 
Q 2906 1169 2906 1791 
z
M 3481 434 
Q 3481 -459 3084 -895 
Q 2688 -1331 1869 -1331 
Q 1566 -1331 1297 -1286 
Q 1028 -1241 775 -1147 
L 775 -588 
Q 1028 -725 1275 -790 
Q 1522 -856 1778 -856 
Q 2344 -856 2625 -561 
Q 2906 -266 2906 331 
L 2906 616 
Q 2728 306 2450 153 
Q 2172 0 1784 0 
Q 1141 0 747 490 
Q 353 981 353 1791 
Q 353 2603 747 3093 
Q 1141 3584 1784 3584 
Q 2172 3584 2450 3431 
Q 2728 3278 2906 2969 
L 2906 3500 
L 3481 3500 
L 3481 434 
z
" transform="scale(0.015625)"/>
      <path id="DejaVuSans-29" d="M 513 4856 
L 1013 4856 
Q 1481 4119 1714 3412 
Q 1947 2706 1947 2009 
Q 1947 1309 1714 600 
Q 1481 -109 1013 -844 
L 513 -844 
Q 928 -128 1133 580 
Q 1338 1288 1338 2009 
Q 1338 2731 1133 3434 
Q 928 4138 513 4856 
z
" transform="scale(0.015625)"/>
     </defs>
     <use xlink:href="#DejaVuSans-20"/>
     <use xlink:href="#DejaVuSans-28" x="31.787109"/>
     <use xlink:href="#DejaVuSans-34" x="70.800781"/>
     <use xlink:href="#DejaVuSans-20" x="134.423828"/>
     <use xlink:href="#DejaVuSans-67" x="166.210938"/>
     <use xlink:href="#DejaVuSans-61" x="229.6875"/>
     <use xlink:href="#DejaVuSans-75" x="290.966797"/>
     <use xlink:href="#DejaVuSans-73" x="354.345703"/>
     <use xlink:href="#DejaVuSans-73" x="406.445312"/>
     <use xlink:href="#DejaVuSans-69" x="458.544922"/>
     <use xlink:href="#DejaVuSans-61" x="486.328125"/>
     <use xlink:href="#DejaVuSans-6e" x="547.607422"/>
     <use xlink:href="#DejaVuSans-73" x="610.986328"/>
     <use xlink:href="#DejaVuSans-29" x="663.085938"/>
    </g>
   </g>
  </g>
  <g id="axes_2">
   <g id="patch_7">
    <path d="M 329.19525 257.375 
L 550.481 257.375 
L 550.481 36.08925 
L 329.19525 36.08925 
z
" style="fill: #ffffff"/>
   </g>
   <g id="PatchCollection_1">
    <path d="M 355.244689 158.337418 
C 356.842325 160.128557 358.455255 160.623769 359.728251 159.713991 
C 361.001246 158.804212 361.830371 156.563722 362.033022 153.485962 
C 362.235673 150.408202 361.795304 146.744458 360.8089 143.301627 
C 359.822497 139.858796 358.370595 136.91797 356.772959 135.126832 
C 355.175322 133.335693 353.562392 132.840481 352.289397 133.750259 
C 351.016402 134.660038 350.187276 136.900528 349.984625 139.978288 
C 349.781975 143.056048 350.222344 146.719792 351.208747 150.162623 
C 352.195151 153.605454 353.647053 156.54628 355.244689 158.337418 
z
" clip-path="url(#pf7f8bb91de)" style="fill: #008000"/>
    <path d="M 523.632162 156.931788 
C 527.31994 157.260974 530.860889 156.86797 533.475155 155.839331 
C 536.089421 154.810692 537.563561 153.230401 537.572913 151.446498 
C 537.582265 149.662596 536.126066 147.820731 533.525026 146.326552 
C 530.923986 144.832372 527.390468 143.807873 523.70269 143.478686 
C 520.014912 143.1495 516.473964 143.542503 513.859698 144.571143 
C 511.245432 145.599782 509.771292 147.180073 509.761939 148.963975 
C 509.752587 150.747877 511.208787 152.589743 513.809827 154.083922 
C 516.410867 155.578101 519.944384 156.602601 523.632162 156.931788 
z
" clip-path="url(#pf7f8bb91de)" style="fill: #008000"/>
   </g>
   <g id="matplotlib.axis_3">
    <g id="xtick_8">
     <g id="line2d_18">
      <g>
       <use xlink:href="#m57e887c7f3" x="349.672771" y="257.375" style="stroke: #000000; stroke-width: 0.8"/>
      </g>
     </g>
     <g id="text_15">
      <!-- 0 -->
      <g transform="translate(346.491521 271.973438) scale(0.1 -0.1)">
       <use xlink:href="#DejaVuSans-30"/>
      </g>
     </g>
    </g>
    <g id="xtick_9">
     <g id="line2d_19">
      <g>
       <use xlink:href="#m57e887c7f3" x="394.362061" y="257.375" style="stroke: #000000; stroke-width: 0.8"/>
      </g>
     </g>
     <g id="text_16">
      <!-- 5 -->
      <g transform="translate(391.180811 271.973438) scale(0.1 -0.1)">
       <use xlink:href="#DejaVuSans-35"/>
      </g>
     </g>
    </g>
    <g id="xtick_10">
     <g id="line2d_20">
      <g>
       <use xlink:href="#m57e887c7f3" x="439.051351" y="257.375" style="stroke: #000000; stroke-width: 0.8"/>
      </g>
     </g>
     <g id="text_17">
      <!-- 10 -->
      <g transform="translate(432.688851 271.973438) scale(0.1 -0.1)">
       <use xlink:href="#DejaVuSans-31"/>
       <use xlink:href="#DejaVuSans-30" x="63.623047"/>
      </g>
     </g>
    </g>
    <g id="xtick_11">
     <g id="line2d_21">
      <g>
       <use xlink:href="#m57e887c7f3" x="483.74064" y="257.375" style="stroke: #000000; stroke-width: 0.8"/>
      </g>
     </g>
     <g id="text_18">
      <!-- 15 -->
      <g transform="translate(477.37814 271.973438) scale(0.1 -0.1)">
       <use xlink:href="#DejaVuSans-31"/>
       <use xlink:href="#DejaVuSans-35" x="63.623047"/>
      </g>
     </g>
    </g>
    <g id="xtick_12">
     <g id="line2d_22">
      <g>
       <use xlink:href="#m57e887c7f3" x="528.42993" y="257.375" style="stroke: #000000; stroke-width: 0.8"/>
      </g>
     </g>
     <g id="text_19">
      <!-- 20 -->
      <g transform="translate(522.06743 271.973438) scale(0.1 -0.1)">
       <use xlink:href="#DejaVuSans-32"/>
       <use xlink:href="#DejaVuSans-30" x="63.623047"/>
      </g>
     </g>
    </g>
   </g>
   <g id="matplotlib.axis_4">
    <g id="ytick_7">
     <g id="line2d_23">
      <g>
       <use xlink:href="#m9fa985e6f8" x="329.19525" y="228.979016" style="stroke: #000000; stroke-width: 0.8"/>
      </g>
     </g>
     <g id="text_20">
      <!-- −2 -->
      <g transform="translate(307.453062 232.778235) scale(0.1 -0.1)">
       <use xlink:href="#DejaVuSans-2212"/>
       <use xlink:href="#DejaVuSans-32" x="83.789062"/>
      </g>
     </g>
    </g>
    <g id="ytick_8">
     <g id="line2d_24">
      <g>
       <use xlink:href="#m9fa985e6f8" x="329.19525" y="192.098058" style="stroke: #000000; stroke-width: 0.8"/>
      </g>
     </g>
     <g id="text_21">
      <!-- −1 -->
      <g transform="translate(307.453062 195.897276) scale(0.1 -0.1)">
       <use xlink:href="#DejaVuSans-2212"/>
       <use xlink:href="#DejaVuSans-31" x="83.789062"/>
      </g>
     </g>
    </g>
    <g id="ytick_9">
     <g id="line2d_25">
      <g>
       <use xlink:href="#m9fa985e6f8" x="329.19525" y="155.217099" style="stroke: #000000; stroke-width: 0.8"/>
      </g>
     </g>
     <g id="text_22">
      <!-- 0 -->
      <g transform="translate(315.83275 159.016318) scale(0.1 -0.1)">
       <use xlink:href="#DejaVuSans-30"/>
      </g>
     </g>
    </g>
    <g id="ytick_10">
     <g id="line2d_26">
      <g>
       <use xlink:href="#m9fa985e6f8" x="329.19525" y="118.336141" style="stroke: #000000; stroke-width: 0.8"/>
      </g>
     </g>
     <g id="text_23">
      <!-- 1 -->
      <g transform="translate(315.83275 122.13536) scale(0.1 -0.1)">
       <use xlink:href="#DejaVuSans-31"/>
      </g>
     </g>
    </g>
    <g id="ytick_11">
     <g id="line2d_27">
      <g>
       <use xlink:href="#m9fa985e6f8" x="329.19525" y="81.455183" style="stroke: #000000; stroke-width: 0.8"/>
      </g>
     </g>
     <g id="text_24">
      <!-- 2 -->
      <g transform="translate(315.83275 85.254401) scale(0.1 -0.1)">
       <use xlink:href="#DejaVuSans-32"/>
      </g>
     </g>
    </g>
    <g id="ytick_12">
     <g id="line2d_28">
      <g>
       <use xlink:href="#m9fa985e6f8" x="329.19525" y="44.574224" style="stroke: #000000; stroke-width: 0.8"/>
      </g>
     </g>
     <g id="text_25">
      <!-- 3 -->
      <g transform="translate(315.83275 48.373443) scale(0.1 -0.1)">
       <defs>
        <path id="DejaVuSans-33" d="M 2597 2516 
Q 3050 2419 3304 2112 
Q 3559 1806 3559 1356 
Q 3559 666 3084 287 
Q 2609 -91 1734 -91 
Q 1441 -91 1130 -33 
Q 819 25 488 141 
L 488 750 
Q 750 597 1062 519 
Q 1375 441 1716 441 
Q 2309 441 2620 675 
Q 2931 909 2931 1356 
Q 2931 1769 2642 2001 
Q 2353 2234 1838 2234 
L 1294 2234 
L 1294 2753 
L 1863 2753 
Q 2328 2753 2575 2939 
Q 2822 3125 2822 3475 
Q 2822 3834 2567 4026 
Q 2313 4219 1838 4219 
Q 1578 4219 1281 4162 
Q 984 4106 628 3988 
L 628 4550 
Q 988 4650 1302 4700 
Q 1616 4750 1894 4750 
Q 2613 4750 3031 4423 
Q 3450 4097 3450 3541 
Q 3450 3153 3228 2886 
Q 3006 2619 2597 2516 
z
" transform="scale(0.015625)"/>
       </defs>
       <use xlink:href="#DejaVuSans-33"/>
      </g>
     </g>
    </g>
   </g>
   <g id="patch_8">
    <path d="M 329.19525 257.375 
L 329.19525 36.08925 
" style="fill: none; stroke: #000000; stroke-width: 0.8; stroke-linejoin: miter; stroke-linecap: square"/>
   </g>
   <g id="patch_9">
    <path d="M 550.481 257.375 
L 550.481 36.08925 
" style="fill: none; stroke: #000000; stroke-width: 0.8; stroke-linejoin: miter; stroke-linecap: square"/>
   </g>
   <g id="patch_10">
    <path d="M 329.19525 257.375 
L 550.481 257.375 
" style="fill: none; stroke: #000000; stroke-width: 0.8; stroke-linejoin: miter; stroke-linecap: square"/>
   </g>
   <g id="patch_11">
    <path d="M 329.19525 36.08925 
L 550.481 36.08925 
" style="fill: none; stroke: #000000; stroke-width: 0.8; stroke-linejoin: miter; stroke-linecap: square"/>
   </g>
   <g id="text_26">
    <!-- H_1 Distributional Coordinates  -->
    <g transform="translate(346.422812 16.318125) scale(0.12 -0.12)">
     <use xlink:href="#DejaVuSans-48"/>
     <use xlink:href="#DejaVuSans-5f" x="75.195312"/>
     <use xlink:href="#DejaVuSans-31" x="125.195312"/>
     <use xlink:href="#DejaVuSans-20" x="188.818359"/>
     <use xlink:href="#DejaVuSans-44" x="220.605469"/>
     <use xlink:href="#DejaVuSans-69" x="297.607422"/>
     <use xlink:href="#DejaVuSans-73" x="325.390625"/>
     <use xlink:href="#DejaVuSans-74" x="377.490234"/>
     <use xlink:href="#DejaVuSans-72" x="416.699219"/>
     <use xlink:href="#DejaVuSans-69" x="457.8125"/>
     <use xlink:href="#DejaVuSans-62" x="485.595703"/>
     <use xlink:href="#DejaVuSans-75" x="549.072266"/>
     <use xlink:href="#DejaVuSans-74" x="612.451172"/>
     <use xlink:href="#DejaVuSans-69" x="651.660156"/>
     <use xlink:href="#DejaVuSans-6f" x="679.443359"/>
     <use xlink:href="#DejaVuSans-6e" x="740.625"/>
     <use xlink:href="#DejaVuSans-61" x="804.003906"/>
     <use xlink:href="#DejaVuSans-6c" x="865.283203"/>
     <use xlink:href="#DejaVuSans-20" x="893.066406"/>
     <use xlink:href="#DejaVuSans-43" x="924.853516"/>
     <use xlink:href="#DejaVuSans-6f" x="994.677734"/>
     <use xlink:href="#DejaVuSans-6f" x="1055.859375"/>
     <use xlink:href="#DejaVuSans-72" x="1117.041016"/>
     <use xlink:href="#DejaVuSans-64" x="1156.404297"/>
     <use xlink:href="#DejaVuSans-69" x="1219.880859"/>
     <use xlink:href="#DejaVuSans-6e" x="1247.664062"/>
     <use xlink:href="#DejaVuSans-61" x="1311.042969"/>
     <use xlink:href="#DejaVuSans-74" x="1372.322266"/>
     <use xlink:href="#DejaVuSans-65" x="1411.53125"/>
     <use xlink:href="#DejaVuSans-73" x="1473.054688"/>
     <use xlink:href="#DejaVuSans-20" x="1525.154297"/>
    </g>
    <!--  (2 gaussians) -->
    <g transform="translate(397.713437 30.08925) scale(0.12 -0.12)">
     <use xlink:href="#DejaVuSans-20"/>
     <use xlink:href="#DejaVuSans-28" x="31.787109"/>
     <use xlink:href="#DejaVuSans-32" x="70.800781"/>
     <use xlink:href="#DejaVuSans-20" x="134.423828"/>
     <use xlink:href="#DejaVuSans-67" x="166.210938"/>
     <use xlink:href="#DejaVuSans-61" x="229.6875"/>
     <use xlink:href="#DejaVuSans-75" x="290.966797"/>
     <use xlink:href="#DejaVuSans-73" x="354.345703"/>
     <use xlink:href="#DejaVuSans-73" x="406.445312"/>
     <use xlink:href="#DejaVuSans-69" x="458.544922"/>
     <use xlink:href="#DejaVuSans-61" x="486.328125"/>
     <use xlink:href="#DejaVuSans-6e" x="547.607422"/>
     <use xlink:href="#DejaVuSans-73" x="610.986328"/>
     <use xlink:href="#DejaVuSans-29" x="663.085938"/>
    </g>
   </g>
  </g>
  <g id="axes_3">
   <g id="patch_12">
    <path d="M 613.20525 257.375 
L 834.491 257.375 
L 834.491 36.08925 
L 613.20525 36.08925 
z
" style="fill: #ffffff"/>
   </g>
   <g id="PatchCollection_2">
    <path d="M 641.350228 131.854625 
C 643.361838 131.465257 645.284713 130.327765 646.695362 128.692668 
C 648.10601 127.057571 648.88926 125.058368 648.872609 123.13536 
C 648.855957 121.212352 648.040764 119.522545 646.606567 118.438098 
C 645.17237 117.353652 643.236264 116.963106 641.224654 117.352475 
C 639.213044 117.741843 637.290169 118.879335 635.879521 120.514432 
C 634.468872 122.149529 633.685622 124.148732 633.702274 126.07174 
C 633.718925 127.994748 634.534118 129.684555 635.968315 130.769002 
C 637.402513 131.853448 639.338619 132.243994 641.350228 131.854625 
z
" clip-path="url(#pa019cfddfb)" style="fill: #008000"/>
    <path d="M 806.409944 128.690206 
C 809.870961 128.657615 813.190571 128.342481 815.637667 127.814208 
C 818.084763 127.285936 819.459551 126.587656 819.45925 125.873157 
C 819.458949 125.158658 818.083583 124.486275 815.636062 124.004093 
C 813.18854 123.521911 809.868691 123.269298 806.407674 123.30189 
C 802.946656 123.334481 799.627047 123.649615 797.179951 124.177887 
C 794.732855 124.70616 793.358067 125.40444 793.358368 126.118939 
C 793.358669 126.833438 794.734034 127.505821 797.181556 127.988003 
C 799.629078 128.470185 802.948926 128.722797 806.409944 128.690206 
z
" clip-path="url(#pa019cfddfb)" style="fill: #008000"/>
   </g>
   <g id="matplotlib.axis_5">
    <g id="xtick_13">
     <g id="line2d_29">
      <g>
       <use xlink:href="#m57e887c7f3" x="626.192074" y="257.375" style="stroke: #000000; stroke-width: 0.8"/>
      </g>
     </g>
     <g id="text_27">
      <!-- 0 -->
      <g transform="translate(623.010824 271.973438) scale(0.1 -0.1)">
       <use xlink:href="#DejaVuSans-30"/>
      </g>
     </g>
    </g>
    <g id="xtick_14">
     <g id="line2d_30">
      <g>
       <use xlink:href="#m57e887c7f3" x="672.995726" y="257.375" style="stroke: #000000; stroke-width: 0.8"/>
      </g>
     </g>
     <g id="text_28">
      <!-- 5 -->
      <g transform="translate(669.814476 271.973438) scale(0.1 -0.1)">
       <use xlink:href="#DejaVuSans-35"/>
      </g>
     </g>
    </g>
    <g id="xtick_15">
     <g id="line2d_31">
      <g>
       <use xlink:href="#m57e887c7f3" x="719.799378" y="257.375" style="stroke: #000000; stroke-width: 0.8"/>
      </g>
     </g>
     <g id="text_29">
      <!-- 10 -->
      <g transform="translate(713.436878 271.973438) scale(0.1 -0.1)">
       <use xlink:href="#DejaVuSans-31"/>
       <use xlink:href="#DejaVuSans-30" x="63.623047"/>
      </g>
     </g>
    </g>
    <g id="xtick_16">
     <g id="line2d_32">
      <g>
       <use xlink:href="#m57e887c7f3" x="766.60303" y="257.375" style="stroke: #000000; stroke-width: 0.8"/>
      </g>
     </g>
     <g id="text_30">
      <!-- 15 -->
      <g transform="translate(760.24053 271.973438) scale(0.1 -0.1)">
       <use xlink:href="#DejaVuSans-31"/>
       <use xlink:href="#DejaVuSans-35" x="63.623047"/>
      </g>
     </g>
    </g>
    <g id="xtick_17">
     <g id="line2d_33">
      <g>
       <use xlink:href="#m57e887c7f3" x="813.406682" y="257.375" style="stroke: #000000; stroke-width: 0.8"/>
      </g>
     </g>
     <g id="text_31">
      <!-- 20 -->
      <g transform="translate(807.044182 271.973438) scale(0.1 -0.1)">
       <use xlink:href="#DejaVuSans-32"/>
       <use xlink:href="#DejaVuSans-30" x="63.623047"/>
      </g>
     </g>
    </g>
   </g>
   <g id="matplotlib.axis_6">
    <g id="ytick_13">
     <g id="line2d_34">
      <g>
       <use xlink:href="#m9fa985e6f8" x="613.20525" y="216.454133" style="stroke: #000000; stroke-width: 0.8"/>
      </g>
     </g>
     <g id="text_32">
      <!-- −2 -->
      <g transform="translate(591.463062 220.253352) scale(0.1 -0.1)">
       <use xlink:href="#DejaVuSans-2212"/>
       <use xlink:href="#DejaVuSans-32" x="83.789062"/>
      </g>
     </g>
    </g>
    <g id="ytick_14">
     <g id="line2d_35">
      <g>
       <use xlink:href="#m9fa985e6f8" x="613.20525" y="172.196983" style="stroke: #000000; stroke-width: 0.8"/>
      </g>
     </g>
     <g id="text_33">
      <!-- −1 -->
      <g transform="translate(591.463062 175.996202) scale(0.1 -0.1)">
       <use xlink:href="#DejaVuSans-2212"/>
       <use xlink:href="#DejaVuSans-31" x="83.789062"/>
      </g>
     </g>
    </g>
    <g id="ytick_15">
     <g id="line2d_36">
      <g>
       <use xlink:href="#m9fa985e6f8" x="613.20525" y="127.939833" style="stroke: #000000; stroke-width: 0.8"/>
      </g>
     </g>
     <g id="text_34">
      <!-- 0 -->
      <g transform="translate(599.84275 131.739052) scale(0.1 -0.1)">
       <use xlink:href="#DejaVuSans-30"/>
      </g>
     </g>
    </g>
    <g id="ytick_16">
     <g id="line2d_37">
      <g>
       <use xlink:href="#m9fa985e6f8" x="613.20525" y="83.682683" style="stroke: #000000; stroke-width: 0.8"/>
      </g>
     </g>
     <g id="text_35">
      <!-- 1 -->
      <g transform="translate(599.84275 87.481902) scale(0.1 -0.1)">
       <use xlink:href="#DejaVuSans-31"/>
      </g>
     </g>
    </g>
    <g id="ytick_17">
     <g id="line2d_38">
      <g>
       <use xlink:href="#m9fa985e6f8" x="613.20525" y="39.425533" style="stroke: #000000; stroke-width: 0.8"/>
      </g>
     </g>
     <g id="text_36">
      <!-- 2 -->
      <g transform="translate(599.84275 43.224752) scale(0.1 -0.1)">
       <use xlink:href="#DejaVuSans-32"/>
      </g>
     </g>
    </g>
   </g>
   <g id="patch_13">
    <path d="M 613.20525 257.375 
L 613.20525 36.08925 
" style="fill: none; stroke: #000000; stroke-width: 0.8; stroke-linejoin: miter; stroke-linecap: square"/>
   </g>
   <g id="patch_14">
    <path d="M 834.491 257.375 
L 834.491 36.08925 
" style="fill: none; stroke: #000000; stroke-width: 0.8; stroke-linejoin: miter; stroke-linecap: square"/>
   </g>
   <g id="patch_15">
    <path d="M 613.20525 257.375 
L 834.491 257.375 
" style="fill: none; stroke: #000000; stroke-width: 0.8; stroke-linejoin: miter; stroke-linecap: square"/>
   </g>
   <g id="patch_16">
    <path d="M 613.20525 36.08925 
L 834.491 36.08925 
" style="fill: none; stroke: #000000; stroke-width: 0.8; stroke-linejoin: miter; stroke-linecap: square"/>
   </g>
   <g id="text_37">
    <!-- H_2 Distributional Coordinates  -->
    <g transform="translate(630.432812 16.318125) scale(0.12 -0.12)">
     <use xlink:href="#DejaVuSans-48"/>
     <use xlink:href="#DejaVuSans-5f" x="75.195312"/>
     <use xlink:href="#DejaVuSans-32" x="125.195312"/>
     <use xlink:href="#DejaVuSans-20" x="188.818359"/>
     <use xlink:href="#DejaVuSans-44" x="220.605469"/>
     <use xlink:href="#DejaVuSans-69" x="297.607422"/>
     <use xlink:href="#DejaVuSans-73" x="325.390625"/>
     <use xlink:href="#DejaVuSans-74" x="377.490234"/>
     <use xlink:href="#DejaVuSans-72" x="416.699219"/>
     <use xlink:href="#DejaVuSans-69" x="457.8125"/>
     <use xlink:href="#DejaVuSans-62" x="485.595703"/>
     <use xlink:href="#DejaVuSans-75" x="549.072266"/>
     <use xlink:href="#DejaVuSans-74" x="612.451172"/>
     <use xlink:href="#DejaVuSans-69" x="651.660156"/>
     <use xlink:href="#DejaVuSans-6f" x="679.443359"/>
     <use xlink:href="#DejaVuSans-6e" x="740.625"/>
     <use xlink:href="#DejaVuSans-61" x="804.003906"/>
     <use xlink:href="#DejaVuSans-6c" x="865.283203"/>
     <use xlink:href="#DejaVuSans-20" x="893.066406"/>
     <use xlink:href="#DejaVuSans-43" x="924.853516"/>
     <use xlink:href="#DejaVuSans-6f" x="994.677734"/>
     <use xlink:href="#DejaVuSans-6f" x="1055.859375"/>
     <use xlink:href="#DejaVuSans-72" x="1117.041016"/>
     <use xlink:href="#DejaVuSans-64" x="1156.404297"/>
     <use xlink:href="#DejaVuSans-69" x="1219.880859"/>
     <use xlink:href="#DejaVuSans-6e" x="1247.664062"/>
     <use xlink:href="#DejaVuSans-61" x="1311.042969"/>
     <use xlink:href="#DejaVuSans-74" x="1372.322266"/>
     <use xlink:href="#DejaVuSans-65" x="1411.53125"/>
     <use xlink:href="#DejaVuSans-73" x="1473.054688"/>
     <use xlink:href="#DejaVuSans-20" x="1525.154297"/>
    </g>
    <!--  (2 gaussians) -->
    <g transform="translate(681.723437 30.08925) scale(0.12 -0.12)">
     <use xlink:href="#DejaVuSans-20"/>
     <use xlink:href="#DejaVuSans-28" x="31.787109"/>
     <use xlink:href="#DejaVuSans-32" x="70.800781"/>
     <use xlink:href="#DejaVuSans-20" x="134.423828"/>
     <use xlink:href="#DejaVuSans-67" x="166.210938"/>
     <use xlink:href="#DejaVuSans-61" x="229.6875"/>
     <use xlink:href="#DejaVuSans-75" x="290.966797"/>
     <use xlink:href="#DejaVuSans-73" x="354.345703"/>
     <use xlink:href="#DejaVuSans-73" x="406.445312"/>
     <use xlink:href="#DejaVuSans-69" x="458.544922"/>
     <use xlink:href="#DejaVuSans-61" x="486.328125"/>
     <use xlink:href="#DejaVuSans-6e" x="547.607422"/>
     <use xlink:href="#DejaVuSans-73" x="610.986328"/>
     <use xlink:href="#DejaVuSans-29" x="663.085938"/>
    </g>
   </g>
  </g>
 </g>
 <defs>
  <clipPath id="p7d2284b64f">
   <rect x="30.103125" y="36.08925" width="251.45" height="221.28575"/>
  </clipPath>
  <clipPath id="pf7f8bb91de">
   <rect x="329.19525" y="36.08925" width="221.28575" height="221.28575"/>
  </clipPath>
  <clipPath id="pa019cfddfb">
   <rect x="613.20525" y="36.08925" width="221.28575" height="221.28575"/>
  </clipPath>
 </defs>
</svg>
