<?xml version="1.0" encoding="utf-8" standalone="no"?>
<!DOCTYPE svg PUBLIC "-//W3C//DTD SVG 1.1//EN"
  "http://www.w3.org/Graphics/SVG/1.1/DTD/svg11.dtd">
<svg xmlns:xlink="http://www.w3.org/1999/xlink" width="841.691pt" height="281.253125pt" viewBox="0 0 841.691 281.253125" xmlns="http://www.w3.org/2000/svg" version="1.1">
 <metadata>
  <rdf:RDF xmlns:dc="http://purl.org/dc/elements/1.1/" xmlns:cc="http://creativecommons.org/ns#" xmlns:rdf="http://www.w3.org/1999/02/22-rdf-syntax-ns#">
   <cc:Work>
    <dc:type rdf:resource="http://purl.org/dc/dcmitype/StillImage"/>
    <dc:date>2023-06-27T17:43:47.820063</dc:date>
    <dc:format>image/svg+xml</dc:format>
    <dc:creator>
     <cc:Agent>
      <dc:title>Matplotlib v3.6.2, https://matplotlib.org/</dc:title>
     </cc:Agent>
    </dc:creator>
   </cc:Work>
  </rdf:RDF>
 </metadata>
 <defs>
  <style type="text/css">*{stroke-linejoin: round; stroke-linecap: butt}</style>
 </defs>
 <g id="figure_1">
  <g id="patch_1">
   <path d="M 0 281.253125 
L 841.691 281.253125 
L 841.691 0 
L 0 0 
z
" style="fill: #ffffff"/>
  </g>
  <g id="axes_1">
   <g id="patch_2">
    <path d="M 30.103125 257.375 
L 281.553125 257.375 
L 281.553125 36.08925 
L 30.103125 36.08925 
z
" style="fill: #ffffff"/>
   </g>
   <g id="matplotlib.axis_1">
    <g id="xtick_1">
     <g id="line2d_1">
      <defs>
       <path id="mbf5bf3529b" d="M 0 0 
L 0 3.5 
" style="stroke: #000000; stroke-width: 0.8"/>
      </defs>
      <g>
       <use xlink:href="#mbf5bf3529b" x="34.869439" y="257.375" style="stroke: #000000; stroke-width: 0.8"/>
      </g>
     </g>
     <g id="text_1">
      <!-- −1.25 -->
      <g transform="translate(19.546783 271.973438) scale(0.1 -0.1)">
       <defs>
        <path id="DejaVuSans-2212" d="M 678 2272 
L 4684 2272 
L 4684 1741 
L 678 1741 
L 678 2272 
z
" transform="scale(0.015625)"/>
        <path id="DejaVuSans-31" d="M 794 531 
L 1825 531 
L 1825 4091 
L 703 3866 
L 703 4441 
L 1819 4666 
L 2450 4666 
L 2450 531 
L 3481 531 
L 3481 0 
L 794 0 
L 794 531 
z
" transform="scale(0.015625)"/>
        <path id="DejaVuSans-2e" d="M 684 794 
L 1344 794 
L 1344 0 
L 684 0 
L 684 794 
z
" transform="scale(0.015625)"/>
        <path id="DejaVuSans-32" d="M 1228 531 
L 3431 531 
L 3431 0 
L 469 0 
L 469 531 
Q 828 903 1448 1529 
Q 2069 2156 2228 2338 
Q 2531 2678 2651 2914 
Q 2772 3150 2772 3378 
Q 2772 3750 2511 3984 
Q 2250 4219 1831 4219 
Q 1534 4219 1204 4116 
Q 875 4013 500 3803 
L 500 4441 
Q 881 4594 1212 4672 
Q 1544 4750 1819 4750 
Q 2544 4750 2975 4387 
Q 3406 4025 3406 3419 
Q 3406 3131 3298 2873 
Q 3191 2616 2906 2266 
Q 2828 2175 2409 1742 
Q 1991 1309 1228 531 
z
" transform="scale(0.015625)"/>
        <path id="DejaVuSans-35" d="M 691 4666 
L 3169 4666 
L 3169 4134 
L 1269 4134 
L 1269 2991 
Q 1406 3038 1543 3061 
Q 1681 3084 1819 3084 
Q 2600 3084 3056 2656 
Q 3513 2228 3513 1497 
Q 3513 744 3044 326 
Q 2575 -91 1722 -91 
Q 1428 -91 1123 -41 
Q 819 9 494 109 
L 494 744 
Q 775 591 1075 516 
Q 1375 441 1709 441 
Q 2250 441 2565 725 
Q 2881 1009 2881 1497 
Q 2881 1984 2565 2268 
Q 2250 2553 1709 2553 
Q 1456 2553 1204 2497 
Q 953 2441 691 2322 
L 691 4666 
z
" transform="scale(0.015625)"/>
       </defs>
       <use xlink:href="#DejaVuSans-2212"/>
       <use xlink:href="#DejaVuSans-31" x="83.789062"/>
       <use xlink:href="#DejaVuSans-2e" x="147.412109"/>
       <use xlink:href="#DejaVuSans-32" x="179.199219"/>
       <use xlink:href="#DejaVuSans-35" x="242.822266"/>
      </g>
     </g>
    </g>
    <g id="xtick_2">
     <g id="line2d_2">
      <g>
       <use xlink:href="#mbf5bf3529b" x="79.453513" y="257.375" style="stroke: #000000; stroke-width: 0.8"/>
      </g>
     </g>
     <g id="text_2">
      <!-- −1.20 -->
      <g transform="translate(64.130856 271.973438) scale(0.1 -0.1)">
       <defs>
        <path id="DejaVuSans-30" d="M 2034 4250 
Q 1547 4250 1301 3770 
Q 1056 3291 1056 2328 
Q 1056 1369 1301 889 
Q 1547 409 2034 409 
Q 2525 409 2770 889 
Q 3016 1369 3016 2328 
Q 3016 3291 2770 3770 
Q 2525 4250 2034 4250 
z
M 2034 4750 
Q 2819 4750 3233 4129 
Q 3647 3509 3647 2328 
Q 3647 1150 3233 529 
Q 2819 -91 2034 -91 
Q 1250 -91 836 529 
Q 422 1150 422 2328 
Q 422 3509 836 4129 
Q 1250 4750 2034 4750 
z
" transform="scale(0.015625)"/>
       </defs>
       <use xlink:href="#DejaVuSans-2212"/>
       <use xlink:href="#DejaVuSans-31" x="83.789062"/>
       <use xlink:href="#DejaVuSans-2e" x="147.412109"/>
       <use xlink:href="#DejaVuSans-32" x="179.199219"/>
       <use xlink:href="#DejaVuSans-30" x="242.822266"/>
      </g>
     </g>
    </g>
    <g id="xtick_3">
     <g id="line2d_3">
      <g>
       <use xlink:href="#mbf5bf3529b" x="124.037586" y="257.375" style="stroke: #000000; stroke-width: 0.8"/>
      </g>
     </g>
     <g id="text_3">
      <!-- −1.15 -->
      <g transform="translate(108.71493 271.973438) scale(0.1 -0.1)">
       <use xlink:href="#DejaVuSans-2212"/>
       <use xlink:href="#DejaVuSans-31" x="83.789062"/>
       <use xlink:href="#DejaVuSans-2e" x="147.412109"/>
       <use xlink:href="#DejaVuSans-31" x="179.199219"/>
       <use xlink:href="#DejaVuSans-35" x="242.822266"/>
      </g>
     </g>
    </g>
    <g id="xtick_4">
     <g id="line2d_4">
      <g>
       <use xlink:href="#mbf5bf3529b" x="168.621659" y="257.375" style="stroke: #000000; stroke-width: 0.8"/>
      </g>
     </g>
     <g id="text_4">
      <!-- −1.10 -->
      <g transform="translate(153.299003 271.973438) scale(0.1 -0.1)">
       <use xlink:href="#DejaVuSans-2212"/>
       <use xlink:href="#DejaVuSans-31" x="83.789062"/>
       <use xlink:href="#DejaVuSans-2e" x="147.412109"/>
       <use xlink:href="#DejaVuSans-31" x="179.199219"/>
       <use xlink:href="#DejaVuSans-30" x="242.822266"/>
      </g>
     </g>
    </g>
    <g id="xtick_5">
     <g id="line2d_5">
      <g>
       <use xlink:href="#mbf5bf3529b" x="213.205733" y="257.375" style="stroke: #000000; stroke-width: 0.8"/>
      </g>
     </g>
     <g id="text_5">
      <!-- −1.05 -->
      <g transform="translate(197.883076 271.973438) scale(0.1 -0.1)">
       <use xlink:href="#DejaVuSans-2212"/>
       <use xlink:href="#DejaVuSans-31" x="83.789062"/>
       <use xlink:href="#DejaVuSans-2e" x="147.412109"/>
       <use xlink:href="#DejaVuSans-30" x="179.199219"/>
       <use xlink:href="#DejaVuSans-35" x="242.822266"/>
      </g>
     </g>
    </g>
    <g id="xtick_6">
     <g id="line2d_6">
      <g>
       <use xlink:href="#mbf5bf3529b" x="257.789806" y="257.375" style="stroke: #000000; stroke-width: 0.8"/>
      </g>
     </g>
     <g id="text_6">
      <!-- −1.00 -->
      <g transform="translate(242.46715 271.973438) scale(0.1 -0.1)">
       <use xlink:href="#DejaVuSans-2212"/>
       <use xlink:href="#DejaVuSans-31" x="83.789062"/>
       <use xlink:href="#DejaVuSans-2e" x="147.412109"/>
       <use xlink:href="#DejaVuSans-30" x="179.199219"/>
       <use xlink:href="#DejaVuSans-30" x="242.822266"/>
      </g>
     </g>
    </g>
   </g>
   <g id="matplotlib.axis_2">
    <g id="ytick_1">
     <g id="line2d_7">
      <defs>
       <path id="mbaa5652944" d="M 0 0 
L -3.5 0 
" style="stroke: #000000; stroke-width: 0.8"/>
      </defs>
      <g>
       <use xlink:href="#mbaa5652944" x="30.103125" y="247.316557" style="stroke: #000000; stroke-width: 0.8"/>
      </g>
     </g>
     <g id="text_7">
      <!-- 0.0 -->
      <g transform="translate(7.2 251.115776) scale(0.1 -0.1)">
       <use xlink:href="#DejaVuSans-30"/>
       <use xlink:href="#DejaVuSans-2e" x="63.623047"/>
       <use xlink:href="#DejaVuSans-30" x="95.410156"/>
      </g>
     </g>
    </g>
    <g id="ytick_2">
     <g id="line2d_8">
      <g>
       <use xlink:href="#mbaa5652944" x="30.103125" y="207.082285" style="stroke: #000000; stroke-width: 0.8"/>
      </g>
     </g>
     <g id="text_8">
      <!-- 0.2 -->
      <g transform="translate(7.2 210.881504) scale(0.1 -0.1)">
       <use xlink:href="#DejaVuSans-30"/>
       <use xlink:href="#DejaVuSans-2e" x="63.623047"/>
       <use xlink:href="#DejaVuSans-32" x="95.410156"/>
      </g>
     </g>
    </g>
    <g id="ytick_3">
     <g id="line2d_9">
      <g>
       <use xlink:href="#mbaa5652944" x="30.103125" y="166.848014" style="stroke: #000000; stroke-width: 0.8"/>
      </g>
     </g>
     <g id="text_9">
      <!-- 0.4 -->
      <g transform="translate(7.2 170.647233) scale(0.1 -0.1)">
       <defs>
        <path id="DejaVuSans-34" d="M 2419 4116 
L 825 1625 
L 2419 1625 
L 2419 4116 
z
M 2253 4666 
L 3047 4666 
L 3047 1625 
L 3713 1625 
L 3713 1100 
L 3047 1100 
L 3047 0 
L 2419 0 
L 2419 1100 
L 313 1100 
L 313 1709 
L 2253 4666 
z
" transform="scale(0.015625)"/>
       </defs>
       <use xlink:href="#DejaVuSans-30"/>
       <use xlink:href="#DejaVuSans-2e" x="63.623047"/>
       <use xlink:href="#DejaVuSans-34" x="95.410156"/>
      </g>
     </g>
    </g>
    <g id="ytick_4">
     <g id="line2d_10">
      <g>
       <use xlink:href="#mbaa5652944" x="30.103125" y="126.613742" style="stroke: #000000; stroke-width: 0.8"/>
      </g>
     </g>
     <g id="text_10">
      <!-- 0.6 -->
      <g transform="translate(7.2 130.412961) scale(0.1 -0.1)">
       <defs>
        <path id="DejaVuSans-36" d="M 2113 2584 
Q 1688 2584 1439 2293 
Q 1191 2003 1191 1497 
Q 1191 994 1439 701 
Q 1688 409 2113 409 
Q 2538 409 2786 701 
Q 3034 994 3034 1497 
Q 3034 2003 2786 2293 
Q 2538 2584 2113 2584 
z
M 3366 4563 
L 3366 3988 
Q 3128 4100 2886 4159 
Q 2644 4219 2406 4219 
Q 1781 4219 1451 3797 
Q 1122 3375 1075 2522 
Q 1259 2794 1537 2939 
Q 1816 3084 2150 3084 
Q 2853 3084 3261 2657 
Q 3669 2231 3669 1497 
Q 3669 778 3244 343 
Q 2819 -91 2113 -91 
Q 1303 -91 875 529 
Q 447 1150 447 2328 
Q 447 3434 972 4092 
Q 1497 4750 2381 4750 
Q 2619 4750 2861 4703 
Q 3103 4656 3366 4563 
z
" transform="scale(0.015625)"/>
       </defs>
       <use xlink:href="#DejaVuSans-30"/>
       <use xlink:href="#DejaVuSans-2e" x="63.623047"/>
       <use xlink:href="#DejaVuSans-36" x="95.410156"/>
      </g>
     </g>
    </g>
    <g id="ytick_5">
     <g id="line2d_11">
      <g>
       <use xlink:href="#mbaa5652944" x="30.103125" y="86.379471" style="stroke: #000000; stroke-width: 0.8"/>
      </g>
     </g>
     <g id="text_11">
      <!-- 0.8 -->
      <g transform="translate(7.2 90.178689) scale(0.1 -0.1)">
       <defs>
        <path id="DejaVuSans-38" d="M 2034 2216 
Q 1584 2216 1326 1975 
Q 1069 1734 1069 1313 
Q 1069 891 1326 650 
Q 1584 409 2034 409 
Q 2484 409 2743 651 
Q 3003 894 3003 1313 
Q 3003 1734 2745 1975 
Q 2488 2216 2034 2216 
z
M 1403 2484 
Q 997 2584 770 2862 
Q 544 3141 544 3541 
Q 544 4100 942 4425 
Q 1341 4750 2034 4750 
Q 2731 4750 3128 4425 
Q 3525 4100 3525 3541 
Q 3525 3141 3298 2862 
Q 3072 2584 2669 2484 
Q 3125 2378 3379 2068 
Q 3634 1759 3634 1313 
Q 3634 634 3220 271 
Q 2806 -91 2034 -91 
Q 1263 -91 848 271 
Q 434 634 434 1313 
Q 434 1759 690 2068 
Q 947 2378 1403 2484 
z
M 1172 3481 
Q 1172 3119 1398 2916 
Q 1625 2713 2034 2713 
Q 2441 2713 2670 2916 
Q 2900 3119 2900 3481 
Q 2900 3844 2670 4047 
Q 2441 4250 2034 4250 
Q 1625 4250 1398 4047 
Q 1172 3844 1172 3481 
z
" transform="scale(0.015625)"/>
       </defs>
       <use xlink:href="#DejaVuSans-30"/>
       <use xlink:href="#DejaVuSans-2e" x="63.623047"/>
       <use xlink:href="#DejaVuSans-38" x="95.410156"/>
      </g>
     </g>
    </g>
    <g id="ytick_6">
     <g id="line2d_12">
      <g>
       <use xlink:href="#mbaa5652944" x="30.103125" y="46.145199" style="stroke: #000000; stroke-width: 0.8"/>
      </g>
     </g>
     <g id="text_12">
      <!-- 1.0 -->
      <g transform="translate(7.2 49.944418) scale(0.1 -0.1)">
       <use xlink:href="#DejaVuSans-31"/>
       <use xlink:href="#DejaVuSans-2e" x="63.623047"/>
       <use xlink:href="#DejaVuSans-30" x="95.410156"/>
      </g>
     </g>
    </g>
   </g>
   <g id="line2d_13">
    <path d="M 41.53267 247.316557 
L 151.82378 247.219008 
L 153.425518 246.997036 
L 154.569616 246.615239 
L 155.484895 246.048714 
L 156.171355 245.381895 
L 156.857814 244.418189 
L 157.544273 243.053602 
L 158.230732 241.160867 
L 158.917191 238.589828 
L 159.603651 235.17051 
L 160.29011 230.719648 
L 160.976569 225.051276 
L 161.891848 215.303145 
L 162.807127 202.768466 
L 163.722406 187.320936 
L 164.866504 164.187186 
L 166.697062 121.366397 
L 168.52762 79.893113 
L 169.442899 63.52945 
L 170.129358 54.40156 
L 170.815817 48.512296 
L 171.273457 46.549446 
L 171.502276 46.178554 
L 171.731096 46.218542 
L 171.959916 46.669167 
L 172.417555 48.788804 
L 172.875195 52.485911 
L 173.561654 60.785152 
L 174.248113 71.986894 
L 175.163392 90.438399 
L 176.99395 133.460371 
L 178.824508 174.818878 
L 179.968606 196.154679 
L 180.883885 210.003411 
L 181.799164 220.979297 
L 182.714443 229.324838 
L 183.629722 235.421459 
L 184.316181 238.78032 
L 185.00264 241.302416 
L 185.6891 243.156593 
L 186.375559 244.491585 
L 187.062018 245.433135 
L 187.977297 246.250547 
L 188.892576 246.732617 
L 190.036674 247.053743 
L 191.638413 247.23768 
L 194.841889 247.311296 
L 221.613797 247.316557 
L 270.12358 247.316557 
L 270.12358 247.316557 
" clip-path="url(#p2ee61a245d)" style="fill: none; stroke: #008000; stroke-width: 1.5; stroke-linecap: square"/>
   </g>
   <g id="line2d_14">
    <path d="M 41.53267 220.090974 
L 42.676769 212.750471 
L 43.820868 204.091378 
L 45.193786 191.91185 
L 46.795524 175.315719 
L 48.626082 153.651653 
L 51.829558 112.133138 
L 54.117756 83.963376 
L 55.490674 69.568779 
L 56.634773 59.764018 
L 57.550051 53.658423 
L 58.236511 50.208651 
L 58.92297 47.789757 
L 59.380609 46.769904 
L 59.838249 46.233365 
L 60.067068 46.147693 
L 60.295888 46.184035 
L 60.753528 46.622275 
L 61.211167 47.544899 
L 61.668807 48.945219 
L 62.355266 51.918352 
L 63.041725 55.894883 
L 63.957004 62.646378 
L 65.101103 73.145465 
L 66.474021 88.177356 
L 68.304579 110.934134 
L 72.880973 169.073891 
L 74.482711 186.490897 
L 76.08445 201.415715 
L 77.457368 212.100051 
L 78.830286 220.881063 
L 79.974385 226.845354 
L 81.118484 231.702604 
L 82.262582 235.586612 
L 83.406681 238.637098 
L 84.550779 240.99094 
L 85.694878 242.775816 
L 86.838977 244.106119 
L 87.983075 245.080848 
L 89.127174 245.783071 
L 90.500092 246.360457 
L 92.101831 246.780583 
L 94.161208 247.072777 
L 97.135865 247.244924 
L 103.085178 247.312009 
L 156.857814 247.316557 
L 270.12358 247.316557 
L 270.12358 247.316557 
" clip-path="url(#p2ee61a245d)" style="fill: none; stroke: #ff0000; stroke-width: 1.5; stroke-linecap: square"/>
   </g>
   <g id="line2d_15">
    <path d="M 41.53267 247.316557 
L 250.216263 247.29513 
L 250.445083 246.933596 
L 250.673903 243.344717 
L 250.902722 223.41265 
L 251.589182 48.370334 
L 252.275641 234.964033 
L 252.50446 245.669504 
L 252.73328 247.189119 
L 253.19092 247.316408 
L 270.12358 247.316557 
L 270.12358 247.316557 
" clip-path="url(#p2ee61a245d)" style="fill: none; stroke: #008000; stroke-width: 1.5; stroke-linecap: square"/>
   </g>
   <g id="patch_3">
    <path d="M 30.103125 257.375 
L 30.103125 36.08925 
" style="fill: none; stroke: #000000; stroke-width: 0.8; stroke-linejoin: miter; stroke-linecap: square"/>
   </g>
   <g id="patch_4">
    <path d="M 281.553125 257.375 
L 281.553125 36.08925 
" style="fill: none; stroke: #000000; stroke-width: 0.8; stroke-linejoin: miter; stroke-linecap: square"/>
   </g>
   <g id="patch_5">
    <path d="M 30.103125 257.375 
L 281.553125 257.375 
" style="fill: none; stroke: #000000; stroke-width: 0.8; stroke-linejoin: miter; stroke-linecap: square"/>
   </g>
   <g id="patch_6">
    <path d="M 30.103125 36.08925 
L 281.553125 36.08925 
" style="fill: none; stroke: #000000; stroke-width: 0.8; stroke-linejoin: miter; stroke-linecap: square"/>
   </g>
   <g id="text_13">
    <!-- H_0 Distributional Coordinates  -->
    <g transform="translate(62.412812 16.318125) scale(0.12 -0.12)">
     <defs>
      <path id="DejaVuSans-48" d="M 628 4666 
L 1259 4666 
L 1259 2753 
L 3553 2753 
L 3553 4666 
L 4184 4666 
L 4184 0 
L 3553 0 
L 3553 2222 
L 1259 2222 
L 1259 0 
L 628 0 
L 628 4666 
z
" transform="scale(0.015625)"/>
      <path id="DejaVuSans-5f" d="M 3263 -1063 
L 3263 -1509 
L -63 -1509 
L -63 -1063 
L 3263 -1063 
z
" transform="scale(0.015625)"/>
      <path id="DejaVuSans-20" transform="scale(0.015625)"/>
      <path id="DejaVuSans-44" d="M 1259 4147 
L 1259 519 
L 2022 519 
Q 2988 519 3436 956 
Q 3884 1394 3884 2338 
Q 3884 3275 3436 3711 
Q 2988 4147 2022 4147 
L 1259 4147 
z
M 628 4666 
L 1925 4666 
Q 3281 4666 3915 4102 
Q 4550 3538 4550 2338 
Q 4550 1131 3912 565 
Q 3275 0 1925 0 
L 628 0 
L 628 4666 
z
" transform="scale(0.015625)"/>
      <path id="DejaVuSans-69" d="M 603 3500 
L 1178 3500 
L 1178 0 
L 603 0 
L 603 3500 
z
M 603 4863 
L 1178 4863 
L 1178 4134 
L 603 4134 
L 603 4863 
z
" transform="scale(0.015625)"/>
      <path id="DejaVuSans-73" d="M 2834 3397 
L 2834 2853 
Q 2591 2978 2328 3040 
Q 2066 3103 1784 3103 
Q 1356 3103 1142 2972 
Q 928 2841 928 2578 
Q 928 2378 1081 2264 
Q 1234 2150 1697 2047 
L 1894 2003 
Q 2506 1872 2764 1633 
Q 3022 1394 3022 966 
Q 3022 478 2636 193 
Q 2250 -91 1575 -91 
Q 1294 -91 989 -36 
Q 684 19 347 128 
L 347 722 
Q 666 556 975 473 
Q 1284 391 1588 391 
Q 1994 391 2212 530 
Q 2431 669 2431 922 
Q 2431 1156 2273 1281 
Q 2116 1406 1581 1522 
L 1381 1569 
Q 847 1681 609 1914 
Q 372 2147 372 2553 
Q 372 3047 722 3315 
Q 1072 3584 1716 3584 
Q 2034 3584 2315 3537 
Q 2597 3491 2834 3397 
z
" transform="scale(0.015625)"/>
      <path id="DejaVuSans-74" d="M 1172 4494 
L 1172 3500 
L 2356 3500 
L 2356 3053 
L 1172 3053 
L 1172 1153 
Q 1172 725 1289 603 
Q 1406 481 1766 481 
L 2356 481 
L 2356 0 
L 1766 0 
Q 1100 0 847 248 
Q 594 497 594 1153 
L 594 3053 
L 172 3053 
L 172 3500 
L 594 3500 
L 594 4494 
L 1172 4494 
z
" transform="scale(0.015625)"/>
      <path id="DejaVuSans-72" d="M 2631 2963 
Q 2534 3019 2420 3045 
Q 2306 3072 2169 3072 
Q 1681 3072 1420 2755 
Q 1159 2438 1159 1844 
L 1159 0 
L 581 0 
L 581 3500 
L 1159 3500 
L 1159 2956 
Q 1341 3275 1631 3429 
Q 1922 3584 2338 3584 
Q 2397 3584 2469 3576 
Q 2541 3569 2628 3553 
L 2631 2963 
z
" transform="scale(0.015625)"/>
      <path id="DejaVuSans-62" d="M 3116 1747 
Q 3116 2381 2855 2742 
Q 2594 3103 2138 3103 
Q 1681 3103 1420 2742 
Q 1159 2381 1159 1747 
Q 1159 1113 1420 752 
Q 1681 391 2138 391 
Q 2594 391 2855 752 
Q 3116 1113 3116 1747 
z
M 1159 2969 
Q 1341 3281 1617 3432 
Q 1894 3584 2278 3584 
Q 2916 3584 3314 3078 
Q 3713 2572 3713 1747 
Q 3713 922 3314 415 
Q 2916 -91 2278 -91 
Q 1894 -91 1617 61 
Q 1341 213 1159 525 
L 1159 0 
L 581 0 
L 581 4863 
L 1159 4863 
L 1159 2969 
z
" transform="scale(0.015625)"/>
      <path id="DejaVuSans-75" d="M 544 1381 
L 544 3500 
L 1119 3500 
L 1119 1403 
Q 1119 906 1312 657 
Q 1506 409 1894 409 
Q 2359 409 2629 706 
Q 2900 1003 2900 1516 
L 2900 3500 
L 3475 3500 
L 3475 0 
L 2900 0 
L 2900 538 
Q 2691 219 2414 64 
Q 2138 -91 1772 -91 
Q 1169 -91 856 284 
Q 544 659 544 1381 
z
M 1991 3584 
L 1991 3584 
z
" transform="scale(0.015625)"/>
      <path id="DejaVuSans-6f" d="M 1959 3097 
Q 1497 3097 1228 2736 
Q 959 2375 959 1747 
Q 959 1119 1226 758 
Q 1494 397 1959 397 
Q 2419 397 2687 759 
Q 2956 1122 2956 1747 
Q 2956 2369 2687 2733 
Q 2419 3097 1959 3097 
z
M 1959 3584 
Q 2709 3584 3137 3096 
Q 3566 2609 3566 1747 
Q 3566 888 3137 398 
Q 2709 -91 1959 -91 
Q 1206 -91 779 398 
Q 353 888 353 1747 
Q 353 2609 779 3096 
Q 1206 3584 1959 3584 
z
" transform="scale(0.015625)"/>
      <path id="DejaVuSans-6e" d="M 3513 2113 
L 3513 0 
L 2938 0 
L 2938 2094 
Q 2938 2591 2744 2837 
Q 2550 3084 2163 3084 
Q 1697 3084 1428 2787 
Q 1159 2491 1159 1978 
L 1159 0 
L 581 0 
L 581 3500 
L 1159 3500 
L 1159 2956 
Q 1366 3272 1645 3428 
Q 1925 3584 2291 3584 
Q 2894 3584 3203 3211 
Q 3513 2838 3513 2113 
z
" transform="scale(0.015625)"/>
      <path id="DejaVuSans-61" d="M 2194 1759 
Q 1497 1759 1228 1600 
Q 959 1441 959 1056 
Q 959 750 1161 570 
Q 1363 391 1709 391 
Q 2188 391 2477 730 
Q 2766 1069 2766 1631 
L 2766 1759 
L 2194 1759 
z
M 3341 1997 
L 3341 0 
L 2766 0 
L 2766 531 
Q 2569 213 2275 61 
Q 1981 -91 1556 -91 
Q 1019 -91 701 211 
Q 384 513 384 1019 
Q 384 1609 779 1909 
Q 1175 2209 1959 2209 
L 2766 2209 
L 2766 2266 
Q 2766 2663 2505 2880 
Q 2244 3097 1772 3097 
Q 1472 3097 1187 3025 
Q 903 2953 641 2809 
L 641 3341 
Q 956 3463 1253 3523 
Q 1550 3584 1831 3584 
Q 2591 3584 2966 3190 
Q 3341 2797 3341 1997 
z
" transform="scale(0.015625)"/>
      <path id="DejaVuSans-6c" d="M 603 4863 
L 1178 4863 
L 1178 0 
L 603 0 
L 603 4863 
z
" transform="scale(0.015625)"/>
      <path id="DejaVuSans-43" d="M 4122 4306 
L 4122 3641 
Q 3803 3938 3442 4084 
Q 3081 4231 2675 4231 
Q 1875 4231 1450 3742 
Q 1025 3253 1025 2328 
Q 1025 1406 1450 917 
Q 1875 428 2675 428 
Q 3081 428 3442 575 
Q 3803 722 4122 1019 
L 4122 359 
Q 3791 134 3420 21 
Q 3050 -91 2638 -91 
Q 1578 -91 968 557 
Q 359 1206 359 2328 
Q 359 3453 968 4101 
Q 1578 4750 2638 4750 
Q 3056 4750 3426 4639 
Q 3797 4528 4122 4306 
z
" transform="scale(0.015625)"/>
      <path id="DejaVuSans-64" d="M 2906 2969 
L 2906 4863 
L 3481 4863 
L 3481 0 
L 2906 0 
L 2906 525 
Q 2725 213 2448 61 
Q 2172 -91 1784 -91 
Q 1150 -91 751 415 
Q 353 922 353 1747 
Q 353 2572 751 3078 
Q 1150 3584 1784 3584 
Q 2172 3584 2448 3432 
Q 2725 3281 2906 2969 
z
M 947 1747 
Q 947 1113 1208 752 
Q 1469 391 1925 391 
Q 2381 391 2643 752 
Q 2906 1113 2906 1747 
Q 2906 2381 2643 2742 
Q 2381 3103 1925 3103 
Q 1469 3103 1208 2742 
Q 947 2381 947 1747 
z
" transform="scale(0.015625)"/>
      <path id="DejaVuSans-65" d="M 3597 1894 
L 3597 1613 
L 953 1613 
Q 991 1019 1311 708 
Q 1631 397 2203 397 
Q 2534 397 2845 478 
Q 3156 559 3463 722 
L 3463 178 
Q 3153 47 2828 -22 
Q 2503 -91 2169 -91 
Q 1331 -91 842 396 
Q 353 884 353 1716 
Q 353 2575 817 3079 
Q 1281 3584 2069 3584 
Q 2775 3584 3186 3129 
Q 3597 2675 3597 1894 
z
M 3022 2063 
Q 3016 2534 2758 2815 
Q 2500 3097 2075 3097 
Q 1594 3097 1305 2825 
Q 1016 2553 972 2059 
L 3022 2063 
z
" transform="scale(0.015625)"/>
     </defs>
     <use xlink:href="#DejaVuSans-48"/>
     <use xlink:href="#DejaVuSans-5f" x="75.195312"/>
     <use xlink:href="#DejaVuSans-30" x="125.195312"/>
     <use xlink:href="#DejaVuSans-20" x="188.818359"/>
     <use xlink:href="#DejaVuSans-44" x="220.605469"/>
     <use xlink:href="#DejaVuSans-69" x="297.607422"/>
     <use xlink:href="#DejaVuSans-73" x="325.390625"/>
     <use xlink:href="#DejaVuSans-74" x="377.490234"/>
     <use xlink:href="#DejaVuSans-72" x="416.699219"/>
     <use xlink:href="#DejaVuSans-69" x="457.8125"/>
     <use xlink:href="#DejaVuSans-62" x="485.595703"/>
     <use xlink:href="#DejaVuSans-75" x="549.072266"/>
     <use xlink:href="#DejaVuSans-74" x="612.451172"/>
     <use xlink:href="#DejaVuSans-69" x="651.660156"/>
     <use xlink:href="#DejaVuSans-6f" x="679.443359"/>
     <use xlink:href="#DejaVuSans-6e" x="740.625"/>
     <use xlink:href="#DejaVuSans-61" x="804.003906"/>
     <use xlink:href="#DejaVuSans-6c" x="865.283203"/>
     <use xlink:href="#DejaVuSans-20" x="893.066406"/>
     <use xlink:href="#DejaVuSans-43" x="924.853516"/>
     <use xlink:href="#DejaVuSans-6f" x="994.677734"/>
     <use xlink:href="#DejaVuSans-6f" x="1055.859375"/>
     <use xlink:href="#DejaVuSans-72" x="1117.041016"/>
     <use xlink:href="#DejaVuSans-64" x="1156.404297"/>
     <use xlink:href="#DejaVuSans-69" x="1219.880859"/>
     <use xlink:href="#DejaVuSans-6e" x="1247.664062"/>
     <use xlink:href="#DejaVuSans-61" x="1311.042969"/>
     <use xlink:href="#DejaVuSans-74" x="1372.322266"/>
     <use xlink:href="#DejaVuSans-65" x="1411.53125"/>
     <use xlink:href="#DejaVuSans-73" x="1473.054688"/>
     <use xlink:href="#DejaVuSans-20" x="1525.154297"/>
    </g>
    <!--  (3 gaussians) -->
    <g transform="translate(113.703437 30.08925) scale(0.12 -0.12)">
     <defs>
      <path id="DejaVuSans-28" d="M 1984 4856 
Q 1566 4138 1362 3434 
Q 1159 2731 1159 2009 
Q 1159 1288 1364 580 
Q 1569 -128 1984 -844 
L 1484 -844 
Q 1016 -109 783 600 
Q 550 1309 550 2009 
Q 550 2706 781 3412 
Q 1013 4119 1484 4856 
L 1984 4856 
z
" transform="scale(0.015625)"/>
      <path id="DejaVuSans-33" d="M 2597 2516 
Q 3050 2419 3304 2112 
Q 3559 1806 3559 1356 
Q 3559 666 3084 287 
Q 2609 -91 1734 -91 
Q 1441 -91 1130 -33 
Q 819 25 488 141 
L 488 750 
Q 750 597 1062 519 
Q 1375 441 1716 441 
Q 2309 441 2620 675 
Q 2931 909 2931 1356 
Q 2931 1769 2642 2001 
Q 2353 2234 1838 2234 
L 1294 2234 
L 1294 2753 
L 1863 2753 
Q 2328 2753 2575 2939 
Q 2822 3125 2822 3475 
Q 2822 3834 2567 4026 
Q 2313 4219 1838 4219 
Q 1578 4219 1281 4162 
Q 984 4106 628 3988 
L 628 4550 
Q 988 4650 1302 4700 
Q 1616 4750 1894 4750 
Q 2613 4750 3031 4423 
Q 3450 4097 3450 3541 
Q 3450 3153 3228 2886 
Q 3006 2619 2597 2516 
z
" transform="scale(0.015625)"/>
      <path id="DejaVuSans-67" d="M 2906 1791 
Q 2906 2416 2648 2759 
Q 2391 3103 1925 3103 
Q 1463 3103 1205 2759 
Q 947 2416 947 1791 
Q 947 1169 1205 825 
Q 1463 481 1925 481 
Q 2391 481 2648 825 
Q 2906 1169 2906 1791 
z
M 3481 434 
Q 3481 -459 3084 -895 
Q 2688 -1331 1869 -1331 
Q 1566 -1331 1297 -1286 
Q 1028 -1241 775 -1147 
L 775 -588 
Q 1028 -725 1275 -790 
Q 1522 -856 1778 -856 
Q 2344 -856 2625 -561 
Q 2906 -266 2906 331 
L 2906 616 
Q 2728 306 2450 153 
Q 2172 0 1784 0 
Q 1141 0 747 490 
Q 353 981 353 1791 
Q 353 2603 747 3093 
Q 1141 3584 1784 3584 
Q 2172 3584 2450 3431 
Q 2728 3278 2906 2969 
L 2906 3500 
L 3481 3500 
L 3481 434 
z
" transform="scale(0.015625)"/>
      <path id="DejaVuSans-29" d="M 513 4856 
L 1013 4856 
Q 1481 4119 1714 3412 
Q 1947 2706 1947 2009 
Q 1947 1309 1714 600 
Q 1481 -109 1013 -844 
L 513 -844 
Q 928 -128 1133 580 
Q 1338 1288 1338 2009 
Q 1338 2731 1133 3434 
Q 928 4138 513 4856 
z
" transform="scale(0.015625)"/>
     </defs>
     <use xlink:href="#DejaVuSans-20"/>
     <use xlink:href="#DejaVuSans-28" x="31.787109"/>
     <use xlink:href="#DejaVuSans-33" x="70.800781"/>
     <use xlink:href="#DejaVuSans-20" x="134.423828"/>
     <use xlink:href="#DejaVuSans-67" x="166.210938"/>
     <use xlink:href="#DejaVuSans-61" x="229.6875"/>
     <use xlink:href="#DejaVuSans-75" x="290.966797"/>
     <use xlink:href="#DejaVuSans-73" x="354.345703"/>
     <use xlink:href="#DejaVuSans-73" x="406.445312"/>
     <use xlink:href="#DejaVuSans-69" x="458.544922"/>
     <use xlink:href="#DejaVuSans-61" x="486.328125"/>
     <use xlink:href="#DejaVuSans-6e" x="547.607422"/>
     <use xlink:href="#DejaVuSans-73" x="610.986328"/>
     <use xlink:href="#DejaVuSans-29" x="663.085938"/>
    </g>
   </g>
  </g>
  <g id="axes_2">
   <g id="patch_7">
    <path d="M 329.19525 257.375 
L 550.481 257.375 
L 550.481 36.08925 
L 329.19525 36.08925 
z
" style="fill: #ffffff"/>
   </g>
   <g id="PatchCollection_1">
    <path d="M 364.916345 158.192158 
C 367.097563 160.064418 369.304457 160.652746 371.050984 159.827569 
C 372.797512 159.002393 373.941076 156.831083 374.22982 153.791847 
C 374.518564 150.75261 373.928913 147.093587 372.590731 143.620635 
C 371.25255 140.147682 369.275094 137.144352 367.093876 135.272092 
C 364.912658 133.399832 362.705763 132.811504 360.959236 133.636681 
C 359.212709 134.461857 358.069145 136.633167 357.780401 139.672403 
C 357.491657 142.71164 358.081308 146.370663 359.419489 149.843615 
C 360.757671 153.316568 362.735126 156.319898 364.916345 158.192158 
z
" clip-path="url(#p4f1247d50f)" style="fill: #008000"/>
    <path d="M 354.836049 41.982553 
C 354.865826 36.704755 354.610956 31.627963 354.127572 27.870283 
C 353.644188 24.112603 352.971755 21.980832 352.258369 21.944468 
C 351.544983 21.908104 350.84889 23.970116 350.323394 27.67637 
C 349.797899 31.382624 349.485907 36.430521 349.45613 41.708319 
C 349.426353 46.986118 349.681223 52.06291 350.164607 55.82059 
C 350.647991 59.57827 351.320424 61.710041 352.03381 61.746405 
C 352.747196 61.782769 353.443289 59.720756 353.968785 56.014502 
C 354.49428 52.308248 354.806272 47.260352 354.836049 41.982553 
z
" clip-path="url(#p4f1247d50f)" style="fill: #ff0000"/>
    <path d="M 513.706051 145.73174 
C 511.851566 145.646482 510.069107 146.287598 508.751241 147.51389 
C 507.433375 148.740183 506.6877 150.451531 506.678441 152.271029 
C 506.669182 154.090527 507.397096 155.869621 508.701869 157.216487 
C 510.006641 158.563353 511.781743 159.368026 513.636228 159.453284 
C 515.490714 159.538543 517.273172 158.897426 518.591038 157.671134 
C 519.908904 156.444841 520.65458 154.733494 520.663838 152.913996 
C 520.673097 151.094498 519.945183 149.315403 518.64041 147.968537 
C 517.335638 146.621671 515.560536 145.816998 513.706051 145.73174 
z
" clip-path="url(#p4f1247d50f)" style="fill: #008000"/>
   </g>
   <g id="matplotlib.axis_3">
    <g id="xtick_7">
     <g id="line2d_16">
      <g>
       <use xlink:href="#mbf5bf3529b" x="357.686228" y="257.375" style="stroke: #000000; stroke-width: 0.8"/>
      </g>
     </g>
     <g id="text_14">
      <!-- 0 -->
      <g transform="translate(354.504978 271.973438) scale(0.1 -0.1)">
       <use xlink:href="#DejaVuSans-30"/>
      </g>
     </g>
    </g>
    <g id="xtick_8">
     <g id="line2d_17">
      <g>
       <use xlink:href="#mbf5bf3529b" x="419.035995" y="257.375" style="stroke: #000000; stroke-width: 0.8"/>
      </g>
     </g>
     <g id="text_15">
      <!-- 5 -->
      <g transform="translate(415.854745 271.973438) scale(0.1 -0.1)">
       <use xlink:href="#DejaVuSans-35"/>
      </g>
     </g>
    </g>
    <g id="xtick_9">
     <g id="line2d_18">
      <g>
       <use xlink:href="#mbf5bf3529b" x="480.385762" y="257.375" style="stroke: #000000; stroke-width: 0.8"/>
      </g>
     </g>
     <g id="text_16">
      <!-- 10 -->
      <g transform="translate(474.023262 271.973438) scale(0.1 -0.1)">
       <use xlink:href="#DejaVuSans-31"/>
       <use xlink:href="#DejaVuSans-30" x="63.623047"/>
      </g>
     </g>
    </g>
    <g id="xtick_10">
     <g id="line2d_19">
      <g>
       <use xlink:href="#mbf5bf3529b" x="541.735529" y="257.375" style="stroke: #000000; stroke-width: 0.8"/>
      </g>
     </g>
     <g id="text_17">
      <!-- 15 -->
      <g transform="translate(535.373029 271.973438) scale(0.1 -0.1)">
       <use xlink:href="#DejaVuSans-31"/>
       <use xlink:href="#DejaVuSans-35" x="63.623047"/>
      </g>
     </g>
    </g>
   </g>
   <g id="matplotlib.axis_4">
    <g id="ytick_7">
     <g id="line2d_20">
      <g>
       <use xlink:href="#mbaa5652944" x="329.19525" y="229.409139" style="stroke: #000000; stroke-width: 0.8"/>
      </g>
     </g>
     <g id="text_18">
      <!-- −2 -->
      <g transform="translate(307.453062 233.208358) scale(0.1 -0.1)">
       <use xlink:href="#DejaVuSans-2212"/>
       <use xlink:href="#DejaVuSans-32" x="83.789062"/>
      </g>
     </g>
    </g>
    <g id="ytick_8">
     <g id="line2d_21">
      <g>
       <use xlink:href="#mbaa5652944" x="329.19525" y="192.528181" style="stroke: #000000; stroke-width: 0.8"/>
      </g>
     </g>
     <g id="text_19">
      <!-- −1 -->
      <g transform="translate(307.453062 196.327399) scale(0.1 -0.1)">
       <use xlink:href="#DejaVuSans-2212"/>
       <use xlink:href="#DejaVuSans-31" x="83.789062"/>
      </g>
     </g>
    </g>
    <g id="ytick_9">
     <g id="line2d_22">
      <g>
       <use xlink:href="#mbaa5652944" x="329.19525" y="155.647222" style="stroke: #000000; stroke-width: 0.8"/>
      </g>
     </g>
     <g id="text_20">
      <!-- 0 -->
      <g transform="translate(315.83275 159.446441) scale(0.1 -0.1)">
       <use xlink:href="#DejaVuSans-30"/>
      </g>
     </g>
    </g>
    <g id="ytick_10">
     <g id="line2d_23">
      <g>
       <use xlink:href="#mbaa5652944" x="329.19525" y="118.766264" style="stroke: #000000; stroke-width: 0.8"/>
      </g>
     </g>
     <g id="text_21">
      <!-- 1 -->
      <g transform="translate(315.83275 122.565483) scale(0.1 -0.1)">
       <use xlink:href="#DejaVuSans-31"/>
      </g>
     </g>
    </g>
    <g id="ytick_11">
     <g id="line2d_24">
      <g>
       <use xlink:href="#mbaa5652944" x="329.19525" y="81.885306" style="stroke: #000000; stroke-width: 0.8"/>
      </g>
     </g>
     <g id="text_22">
      <!-- 2 -->
      <g transform="translate(315.83275 85.684524) scale(0.1 -0.1)">
       <use xlink:href="#DejaVuSans-32"/>
      </g>
     </g>
    </g>
    <g id="ytick_12">
     <g id="line2d_25">
      <g>
       <use xlink:href="#mbaa5652944" x="329.19525" y="45.004347" style="stroke: #000000; stroke-width: 0.8"/>
      </g>
     </g>
     <g id="text_23">
      <!-- 3 -->
      <g transform="translate(315.83275 48.803566) scale(0.1 -0.1)">
       <use xlink:href="#DejaVuSans-33"/>
      </g>
     </g>
    </g>
   </g>
   <g id="patch_8">
    <path d="M 329.19525 257.375 
L 329.19525 36.08925 
" style="fill: none; stroke: #000000; stroke-width: 0.8; stroke-linejoin: miter; stroke-linecap: square"/>
   </g>
   <g id="patch_9">
    <path d="M 550.481 257.375 
L 550.481 36.08925 
" style="fill: none; stroke: #000000; stroke-width: 0.8; stroke-linejoin: miter; stroke-linecap: square"/>
   </g>
   <g id="patch_10">
    <path d="M 329.19525 257.375 
L 550.481 257.375 
" style="fill: none; stroke: #000000; stroke-width: 0.8; stroke-linejoin: miter; stroke-linecap: square"/>
   </g>
   <g id="patch_11">
    <path d="M 329.19525 36.08925 
L 550.481 36.08925 
" style="fill: none; stroke: #000000; stroke-width: 0.8; stroke-linejoin: miter; stroke-linecap: square"/>
   </g>
   <g id="text_24">
    <!-- H_1 Distributional Coordinates  -->
    <g transform="translate(346.422812 16.318125) scale(0.12 -0.12)">
     <use xlink:href="#DejaVuSans-48"/>
     <use xlink:href="#DejaVuSans-5f" x="75.195312"/>
     <use xlink:href="#DejaVuSans-31" x="125.195312"/>
     <use xlink:href="#DejaVuSans-20" x="188.818359"/>
     <use xlink:href="#DejaVuSans-44" x="220.605469"/>
     <use xlink:href="#DejaVuSans-69" x="297.607422"/>
     <use xlink:href="#DejaVuSans-73" x="325.390625"/>
     <use xlink:href="#DejaVuSans-74" x="377.490234"/>
     <use xlink:href="#DejaVuSans-72" x="416.699219"/>
     <use xlink:href="#DejaVuSans-69" x="457.8125"/>
     <use xlink:href="#DejaVuSans-62" x="485.595703"/>
     <use xlink:href="#DejaVuSans-75" x="549.072266"/>
     <use xlink:href="#DejaVuSans-74" x="612.451172"/>
     <use xlink:href="#DejaVuSans-69" x="651.660156"/>
     <use xlink:href="#DejaVuSans-6f" x="679.443359"/>
     <use xlink:href="#DejaVuSans-6e" x="740.625"/>
     <use xlink:href="#DejaVuSans-61" x="804.003906"/>
     <use xlink:href="#DejaVuSans-6c" x="865.283203"/>
     <use xlink:href="#DejaVuSans-20" x="893.066406"/>
     <use xlink:href="#DejaVuSans-43" x="924.853516"/>
     <use xlink:href="#DejaVuSans-6f" x="994.677734"/>
     <use xlink:href="#DejaVuSans-6f" x="1055.859375"/>
     <use xlink:href="#DejaVuSans-72" x="1117.041016"/>
     <use xlink:href="#DejaVuSans-64" x="1156.404297"/>
     <use xlink:href="#DejaVuSans-69" x="1219.880859"/>
     <use xlink:href="#DejaVuSans-6e" x="1247.664062"/>
     <use xlink:href="#DejaVuSans-61" x="1311.042969"/>
     <use xlink:href="#DejaVuSans-74" x="1372.322266"/>
     <use xlink:href="#DejaVuSans-65" x="1411.53125"/>
     <use xlink:href="#DejaVuSans-73" x="1473.054688"/>
     <use xlink:href="#DejaVuSans-20" x="1525.154297"/>
    </g>
    <!--  (3 gaussians) -->
    <g transform="translate(397.713437 30.08925) scale(0.12 -0.12)">
     <use xlink:href="#DejaVuSans-20"/>
     <use xlink:href="#DejaVuSans-28" x="31.787109"/>
     <use xlink:href="#DejaVuSans-33" x="70.800781"/>
     <use xlink:href="#DejaVuSans-20" x="134.423828"/>
     <use xlink:href="#DejaVuSans-67" x="166.210938"/>
     <use xlink:href="#DejaVuSans-61" x="229.6875"/>
     <use xlink:href="#DejaVuSans-75" x="290.966797"/>
     <use xlink:href="#DejaVuSans-73" x="354.345703"/>
     <use xlink:href="#DejaVuSans-73" x="406.445312"/>
     <use xlink:href="#DejaVuSans-69" x="458.544922"/>
     <use xlink:href="#DejaVuSans-61" x="486.328125"/>
     <use xlink:href="#DejaVuSans-6e" x="547.607422"/>
     <use xlink:href="#DejaVuSans-73" x="610.986328"/>
     <use xlink:href="#DejaVuSans-29" x="663.085938"/>
    </g>
   </g>
  </g>
  <g id="axes_3">
   <g id="patch_12">
    <path d="M 613.20525 257.375 
L 834.491 257.375 
L 834.491 36.08925 
L 613.20525 36.08925 
z
" style="fill: #ffffff"/>
   </g>
   <g id="PatchCollection_2">
    <path d="M 650.577506 131.72147 
C 653.152692 131.386468 655.615053 130.315152 657.42228 128.743469 
C 659.229508 127.171785 660.234052 125.228053 660.214671 123.340359 
C 660.195291 121.452664 659.15357 119.775129 657.318934 118.677209 
C 655.484298 117.57929 653.006538 117.150628 650.431352 117.48563 
C 647.856165 117.820632 645.393805 118.891948 643.586577 120.463631 
C 641.779349 122.035315 640.774806 123.979047 640.794186 125.866741 
C 640.813566 127.754436 641.855288 129.431971 643.689924 130.529891 
C 645.524559 131.62781 648.002319 132.056472 650.577506 131.72147 
z
" clip-path="url(#pc94ce60a07)" style="fill: #008000"/>
    <path d="M 797.21346 130.430566 
C 798.994646 130.324538 800.700839 129.737515 801.95627 128.798781 
C 803.2117 127.860048 803.913869 126.646247 803.90813 125.424705 
C 803.902391 124.203163 803.189214 123.073613 801.925668 122.284826 
C 800.662122 121.496038 798.951369 121.112414 797.170183 121.218442 
C 795.388997 121.324469 793.682804 121.911493 792.427373 122.850226 
C 791.171942 123.78896 790.469774 125.002761 790.475512 126.224303 
C 790.481251 127.445845 791.194428 128.575395 792.457975 129.364182 
C 793.721521 130.15297 795.432274 130.536594 797.21346 130.430566 
z
" clip-path="url(#pc94ce60a07)" style="fill: #008000"/>
   </g>
   <g id="matplotlib.axis_5">
    <g id="xtick_11">
     <g id="line2d_26">
      <g>
       <use xlink:href="#mbf5bf3529b" x="631.945034" y="257.375" style="stroke: #000000; stroke-width: 0.8"/>
      </g>
     </g>
     <g id="text_25">
      <!-- 0 -->
      <g transform="translate(628.763784 271.973438) scale(0.1 -0.1)">
       <use xlink:href="#DejaVuSans-30"/>
      </g>
     </g>
    </g>
    <g id="xtick_12">
     <g id="line2d_27">
      <g>
       <use xlink:href="#mbf5bf3529b" x="694.110332" y="257.375" style="stroke: #000000; stroke-width: 0.8"/>
      </g>
     </g>
     <g id="text_26">
      <!-- 5 -->
      <g transform="translate(690.929082 271.973438) scale(0.1 -0.1)">
       <use xlink:href="#DejaVuSans-35"/>
      </g>
     </g>
    </g>
    <g id="xtick_13">
     <g id="line2d_28">
      <g>
       <use xlink:href="#mbf5bf3529b" x="756.27563" y="257.375" style="stroke: #000000; stroke-width: 0.8"/>
      </g>
     </g>
     <g id="text_27">
      <!-- 10 -->
      <g transform="translate(749.91313 271.973438) scale(0.1 -0.1)">
       <use xlink:href="#DejaVuSans-31"/>
       <use xlink:href="#DejaVuSans-30" x="63.623047"/>
      </g>
     </g>
    </g>
    <g id="xtick_14">
     <g id="line2d_29">
      <g>
       <use xlink:href="#mbf5bf3529b" x="818.440927" y="257.375" style="stroke: #000000; stroke-width: 0.8"/>
      </g>
     </g>
     <g id="text_28">
      <!-- 15 -->
      <g transform="translate(812.078427 271.973438) scale(0.1 -0.1)">
       <use xlink:href="#DejaVuSans-31"/>
       <use xlink:href="#DejaVuSans-35" x="63.623047"/>
      </g>
     </g>
    </g>
   </g>
   <g id="matplotlib.axis_6">
    <g id="ytick_13">
     <g id="line2d_30">
      <g>
       <use xlink:href="#mbaa5652944" x="613.20525" y="216.625779" style="stroke: #000000; stroke-width: 0.8"/>
      </g>
     </g>
     <g id="text_29">
      <!-- −2 -->
      <g transform="translate(591.463062 220.424997) scale(0.1 -0.1)">
       <use xlink:href="#DejaVuSans-2212"/>
       <use xlink:href="#DejaVuSans-32" x="83.789062"/>
      </g>
     </g>
    </g>
    <g id="ytick_14">
     <g id="line2d_31">
      <g>
       <use xlink:href="#mbaa5652944" x="613.20525" y="172.368629" style="stroke: #000000; stroke-width: 0.8"/>
      </g>
     </g>
     <g id="text_30">
      <!-- −1 -->
      <g transform="translate(591.463062 176.167847) scale(0.1 -0.1)">
       <use xlink:href="#DejaVuSans-2212"/>
       <use xlink:href="#DejaVuSans-31" x="83.789062"/>
      </g>
     </g>
    </g>
    <g id="ytick_15">
     <g id="line2d_32">
      <g>
       <use xlink:href="#mbaa5652944" x="613.20525" y="128.111479" style="stroke: #000000; stroke-width: 0.8"/>
      </g>
     </g>
     <g id="text_31">
      <!-- 0 -->
      <g transform="translate(599.84275 131.910697) scale(0.1 -0.1)">
       <use xlink:href="#DejaVuSans-30"/>
      </g>
     </g>
    </g>
    <g id="ytick_16">
     <g id="line2d_33">
      <g>
       <use xlink:href="#mbaa5652944" x="613.20525" y="83.854329" style="stroke: #000000; stroke-width: 0.8"/>
      </g>
     </g>
     <g id="text_32">
      <!-- 1 -->
      <g transform="translate(599.84275 87.653547) scale(0.1 -0.1)">
       <use xlink:href="#DejaVuSans-31"/>
      </g>
     </g>
    </g>
    <g id="ytick_17">
     <g id="line2d_34">
      <g>
       <use xlink:href="#mbaa5652944" x="613.20525" y="39.597179" style="stroke: #000000; stroke-width: 0.8"/>
      </g>
     </g>
     <g id="text_33">
      <!-- 2 -->
      <g transform="translate(599.84275 43.396397) scale(0.1 -0.1)">
       <use xlink:href="#DejaVuSans-32"/>
      </g>
     </g>
    </g>
   </g>
   <g id="patch_13">
    <path d="M 613.20525 257.375 
L 613.20525 36.08925 
" style="fill: none; stroke: #000000; stroke-width: 0.8; stroke-linejoin: miter; stroke-linecap: square"/>
   </g>
   <g id="patch_14">
    <path d="M 834.491 257.375 
L 834.491 36.08925 
" style="fill: none; stroke: #000000; stroke-width: 0.8; stroke-linejoin: miter; stroke-linecap: square"/>
   </g>
   <g id="patch_15">
    <path d="M 613.20525 257.375 
L 834.491 257.375 
" style="fill: none; stroke: #000000; stroke-width: 0.8; stroke-linejoin: miter; stroke-linecap: square"/>
   </g>
   <g id="patch_16">
    <path d="M 613.20525 36.08925 
L 834.491 36.08925 
" style="fill: none; stroke: #000000; stroke-width: 0.8; stroke-linejoin: miter; stroke-linecap: square"/>
   </g>
   <g id="text_34">
    <!-- H_2 Distributional Coordinates  -->
    <g transform="translate(630.432812 16.318125) scale(0.12 -0.12)">
     <use xlink:href="#DejaVuSans-48"/>
     <use xlink:href="#DejaVuSans-5f" x="75.195312"/>
     <use xlink:href="#DejaVuSans-32" x="125.195312"/>
     <use xlink:href="#DejaVuSans-20" x="188.818359"/>
     <use xlink:href="#DejaVuSans-44" x="220.605469"/>
     <use xlink:href="#DejaVuSans-69" x="297.607422"/>
     <use xlink:href="#DejaVuSans-73" x="325.390625"/>
     <use xlink:href="#DejaVuSans-74" x="377.490234"/>
     <use xlink:href="#DejaVuSans-72" x="416.699219"/>
     <use xlink:href="#DejaVuSans-69" x="457.8125"/>
     <use xlink:href="#DejaVuSans-62" x="485.595703"/>
     <use xlink:href="#DejaVuSans-75" x="549.072266"/>
     <use xlink:href="#DejaVuSans-74" x="612.451172"/>
     <use xlink:href="#DejaVuSans-69" x="651.660156"/>
     <use xlink:href="#DejaVuSans-6f" x="679.443359"/>
     <use xlink:href="#DejaVuSans-6e" x="740.625"/>
     <use xlink:href="#DejaVuSans-61" x="804.003906"/>
     <use xlink:href="#DejaVuSans-6c" x="865.283203"/>
     <use xlink:href="#DejaVuSans-20" x="893.066406"/>
     <use xlink:href="#DejaVuSans-43" x="924.853516"/>
     <use xlink:href="#DejaVuSans-6f" x="994.677734"/>
     <use xlink:href="#DejaVuSans-6f" x="1055.859375"/>
     <use xlink:href="#DejaVuSans-72" x="1117.041016"/>
     <use xlink:href="#DejaVuSans-64" x="1156.404297"/>
     <use xlink:href="#DejaVuSans-69" x="1219.880859"/>
     <use xlink:href="#DejaVuSans-6e" x="1247.664062"/>
     <use xlink:href="#DejaVuSans-61" x="1311.042969"/>
     <use xlink:href="#DejaVuSans-74" x="1372.322266"/>
     <use xlink:href="#DejaVuSans-65" x="1411.53125"/>
     <use xlink:href="#DejaVuSans-73" x="1473.054688"/>
     <use xlink:href="#DejaVuSans-20" x="1525.154297"/>
    </g>
    <!--  (2 gaussians) -->
    <g transform="translate(681.723437 30.08925) scale(0.12 -0.12)">
     <use xlink:href="#DejaVuSans-20"/>
     <use xlink:href="#DejaVuSans-28" x="31.787109"/>
     <use xlink:href="#DejaVuSans-32" x="70.800781"/>
     <use xlink:href="#DejaVuSans-20" x="134.423828"/>
     <use xlink:href="#DejaVuSans-67" x="166.210938"/>
     <use xlink:href="#DejaVuSans-61" x="229.6875"/>
     <use xlink:href="#DejaVuSans-75" x="290.966797"/>
     <use xlink:href="#DejaVuSans-73" x="354.345703"/>
     <use xlink:href="#DejaVuSans-73" x="406.445312"/>
     <use xlink:href="#DejaVuSans-69" x="458.544922"/>
     <use xlink:href="#DejaVuSans-61" x="486.328125"/>
     <use xlink:href="#DejaVuSans-6e" x="547.607422"/>
     <use xlink:href="#DejaVuSans-73" x="610.986328"/>
     <use xlink:href="#DejaVuSans-29" x="663.085938"/>
    </g>
   </g>
  </g>
 </g>
 <defs>
  <clipPath id="p2ee61a245d">
   <rect x="30.103125" y="36.08925" width="251.45" height="221.28575"/>
  </clipPath>
  <clipPath id="p4f1247d50f">
   <rect x="329.19525" y="36.08925" width="221.28575" height="221.28575"/>
  </clipPath>
  <clipPath id="pc94ce60a07">
   <rect x="613.20525" y="36.08925" width="221.28575" height="221.28575"/>
  </clipPath>
 </defs>
</svg>
